<?xml version="1.0" encoding="UTF-8" standalone="no"?>
<svg width="3440px" height="1717px" viewBox="0 0 3440 1717" version="1.1" xmlns="http://www.w3.org/2000/svg" xmlns:xlink="http://www.w3.org/1999/xlink">
    <!-- Generator: Sketch 46.2 (44496) - http://www.bohemiancoding.com/sketch -->
    <title>Blue bg1</title>
    <desc>Created with Sketch.</desc>
    <defs>
        <rect id="path-1" x="0" y="0" width="3440" height="1717"></rect>
        <linearGradient x1="99.2382812%" y1="10.5178052%" x2="1.0953776%" y2="85.6795058%" id="linearGradient-3">
            <stop stop-color="#516EE0" offset="0%"></stop>
            <stop stop-color="#072E8E" offset="100%"></stop>
        </linearGradient>
        <linearGradient x1="43.1571855%" y1="-31.1702313%" x2="81.2334903%" y2="53.636091%" id="linearGradient-4">
            <stop stop-color="#FFFFFF" stop-opacity="0" offset="0%"></stop>
            <stop stop-color="#FFFFFF" stop-opacity="0.47582654" offset="20.7629923%"></stop>
            <stop stop-color="#FFFFFF" stop-opacity="0" offset="100%"></stop>
        </linearGradient>
    </defs>
    <g id="Oyster" stroke="none" stroke-width="1" fill="none" fill-rule="evenodd">
        <g id="Header">
            <g>
                <g id="Blue-bg1">
                    <mask id="mask-2" fill="white">
                        <use xlink:href="#path-1"></use>
                    </mask>
                    <use id="Mask" fill="#0084E5" xlink:href="#path-1"></use>
                    <rect id="Rectangle-3" fill="url(#linearGradient-3)" opacity="0.55" style="mix-blend-mode: overlay;" mask="url(#mask-2)" x="-26" y="-30" width="3504" height="1928"></rect>
                    <path d="M159.228737,841.168828 C462.333379,286.524139 616.876347,7.15695185 622.857644,3.06726508 C628.83894,-1.02242169 882.879304,-1.02242169 1384.97874,3.06726508 L536.345925,1173.56727 C453.941917,1219.0837 373.569521,1205.86756 295.228737,1133.91883 C50.5672789,909.220019 5.2339456,811.636686 159.228737,841.168828 Z" id="Path-2-Copy" fill="url(#linearGradient-4)" opacity="0.346272882" mask="url(#mask-2)" transform="translate(-461, -193)"></path>
                    <!-- <path d="M1898.75,1500.16883 C2052.74479,1470.63669 2007.41146,1568.22002 1762.75,1792.91883 C1684.40922,1864.86756 1604.03682,1878.0837 1521.63281,1832.56727 L673,662.067265 C1175.09943,657.977578 1429.1398,657.977578 1435.12109,662.067265 C1441.10239,666.156952 1595.64536,945.524139 1898.75,1500.16883 Z" id="Path-2-Copy-2" fill="url(#linearGradient-4)" opacity="0.246272882" mask="url(#mask-2)" transform="translate(1330.489369, 1259.011465) scale(1, -1) translate(-1330.489369, -1259.011465) "></path> -->
                </g>
            </g>
        </g>
    </g>
</svg>