
<svg width="501px" height="403px" viewBox="0 0 501 403" version="1.1" xmlns="http://www.w3.org/2000/svg" xmlns:xlink="http://www.w3.org/1999/xlink">
    <!-- Generator: Sketch 49 (51002) - http://www.bohemiancoding.com/sketch -->
    <desc>Created with Sketch.</desc>
    <defs>
        <linearGradient x1="49.9999261%" y1="0%" x2="49.9999261%" y2="100%" id="linearGradient-1">
            <stop stop-color="#00C9FF" offset="0%"></stop>
            <stop stop-color="#0984FB" offset="100%"></stop>
        </linearGradient>
    </defs>
    <g id="Page-1" stroke="none" stroke-width="1" fill="none" fill-rule="evenodd">
        <g id="Artboard" transform="translate(-1873.000000, -1407.000000)" fill="url(#linearGradient-1)" fill-rule="nonzero">
            <path d="M2274.52645,1810 L1972.55169,1810 C1957.48483,1810 1943.03524,1804.0198 1932.38129,1793.36715 C1921.72734,1782.7145 1915.74202,1768.27001 1915.74202,1753.20778 L1915.74202,1743.68546 C1915.74202,1743.68546 1958.2717,1743.68546 1976.87651,1743.68546 C1980.09038,1743.68546 1982.98805,1741.75339 1984.21864,1738.783 C1985.44858,1735.81919 1984.76952,1732.40193 1982.497,1730.12814 C1952.61769,1700.24684 1883.73875,1631.35621 1883.73875,1631.35621 C1874.3476,1621.96532 1870.77021,1608.23056 1874.38573,1595.45527 C1905.04534,1486.76671 2005.03286,1407 2123.50817,1407 C2241.96048,1407 2341.93946,1486.73386 2372.61221,1595.4027 C2376.2869,1608.38171 2372.5399,1622.33333 2362.84374,1631.71765 C2338.94844,1654.87615 2293.77417,1700.68056 2264.06117,1730.06242 C2261.75381,1732.32307 2261.04385,1735.75347 2262.25998,1738.74357 C2263.48268,1741.73368 2266.38825,1743.68546 2269.6225,1743.68546 C2288.47579,1743.68546 2331.33613,1743.68546 2331.33613,1743.68546 L2331.33613,1753.20778 C2331.33613,1768.27001 2325.35408,1782.7145 2314.69816,1793.36715 C2304.04881,1804.0198 2289.59331,1810 2274.52645,1810 Z M2312,1757 L1934,1757 C1934,1777.43498 1950.63364,1794 1971.15243,1794 C2037.26685,1794 2208.73315,1794 2274.84888,1794 C2295.36439,1794 2312,1777.43498 2312,1757 Z M2170.18297,1598.0322 L2191.49219,1562.01262 C2193.85425,1563.6786 2196.15518,1565.43678 2198.38971,1567.27398 C2199.13521,1567.88638 2199.87282,1568.51194 2200.6032,1569.13751 C2202.62013,1570.88252 2204.5792,1572.69338 2206.47451,1574.57008 C2207.36793,1575.45246 2208.25543,1576.3546 2209.12321,1577.26991 C2209.26784,1577.42794 2209.41904,1577.58598 2209.57024,1577.74402 C2212.37738,1580.73358 2215.0333,1583.87459 2217.51831,1587.14072 C2218.2809,1588.14163 2219.02377,1589.14913 2219.75349,1590.16979 C2219.85868,1590.32124 2219.96386,1590.4727 2220.06905,1590.62415 C2220.44377,1591.14436 2220.80535,1591.67774 2221.16692,1592.20453 C2221.58109,1592.81693 2221.98868,1593.42933 2222.39627,1594.04173 C2223.10627,1595.12824 2223.80313,1596.23451 2224.48026,1597.34078 C2225.03248,1598.25609 2225.57813,1599.18456 2226.11063,1600.11304 C2226.34072,1600.51472 2226.57081,1600.92299 2226.79433,1601.32467 C2226.86665,1601.44978 2226.93239,1601.57489 2226.99813,1601.69342 C2227.07044,1601.81854 2227.13618,1601.93706 2227.20192,1602.06218 C2227.37942,1602.39143 2227.55692,1602.71409 2227.73443,1603.04333 C2228.08285,1603.70183 2228.43128,1604.36032 2228.77313,1605.0254 C2229.02952,1605.53244 2229.27933,1606.03289 2229.52915,1606.54652 C2230.24572,1607.98862 2230.92285,1609.44389 2231.57369,1610.91891 C2231.94183,1611.74203 2232.29684,1612.57173 2232.64526,1613.40143 C2233.01998,1614.30357 2233.38156,1615.21229 2233.73656,1616.12101 C2234.02582,1616.87828 2234.3085,1617.64213 2234.59119,1618.40598 C2234.91332,1619.29495 2235.2223,1620.1905 2235.52471,1621.09264 C2235.79425,1621.87624 2236.04406,1622.66643 2236.29388,1623.45663 C2236.80665,1625.10286 2237.28656,1626.76226 2237.72702,1628.42167 C2237.81906,1628.77067 2237.9111,1629.11308 2237.99656,1629.4555 C2238.47647,1631.35196 2238.91693,1633.26159 2239.3048,1635.17781 C2239.67295,1636.98866 2239.99508,1638.81269 2240.27777,1640.6433 C2240.34351,1641.07791 2240.40925,1641.50593 2240.46841,1641.94053 C2240.53416,1642.40806 2240.5999,1642.87559 2240.65906,1643.34312 C2240.70508,1643.69212 2240.7511,1644.04771 2240.79712,1644.4033 C2241.00092,1646.09563 2241.17184,1647.79454 2241.30332,1649.49345 C2241.4611,1651.48869 2241.56629,1653.49709 2241.61888,1655.5055 C2241.6386,1656.30227 2241.65832,1657.10563 2241.6649,1657.909 C2241.67805,1659.79229 2241.64517,1661.66899 2241.57286,1663.5457 C2241.55314,1663.9803 2241.53342,1664.41491 2241.51369,1664.84952 C2241.50712,1665.00755 2241.50055,1665.16559 2241.4874,1665.32363 C2241.46768,1665.67263 2241.44795,1666.02822 2241.42823,1666.38381 C2241.42166,1666.46282 2241.41508,1666.54184 2241.41508,1666.62086 C2241.40193,1666.73939 2241.39536,1666.85792 2241.38879,1666.97645 C2241.36249,1667.35838 2241.33619,1667.7403 2241.30332,1668.12223 C2241.24416,1668.91242 2241.17184,1669.70261 2241.09953,1670.4928 C2241.0798,1670.67718 2241.06008,1670.86156 2241.04036,1671.04594 C2241.00092,1671.44103 2240.96147,1671.84271 2240.91545,1672.2444 C2240.82342,1673.03459 2240.72481,1673.81819 2240.62619,1674.60839 C2240.55388,1675.10226 2240.48814,1675.60271 2240.41582,1676.10317 C2240.32379,1676.72874 2240.22517,1677.36089 2240.11999,1677.98646 C2240.02795,1678.56593 2239.92934,1679.1454 2239.82416,1679.72488 L2239.80443,1679.84999 C2239.78471,1679.98169 2239.75841,1680.10681 2239.73869,1680.23192 C2239.65323,1680.69287 2239.56777,1681.15381 2239.47573,1681.61476 C2239.34425,1682.28642 2239.20619,1682.9515 2239.06814,1683.62316 C2239.0024,1683.9129 2238.94323,1684.20263 2238.87749,1684.49896 C2238.69341,1685.32866 2238.50277,1686.15836 2238.29897,1686.98806 C2238.14119,1687.63997 2237.97684,1688.29188 2237.80591,1688.9372 C2237.66128,1689.48375 2237.51008,1690.03689 2237.35888,1690.58343 C2237.1748,1691.24851 2236.98415,1691.91359 2236.78693,1692.57208 C2236.74749,1692.71695 2236.70147,1692.85524 2236.66202,1693.0001 C2236.616,1693.13839 2236.57656,1693.28326 2236.53054,1693.42154 C2236.45823,1693.6586 2236.38591,1693.89566 2236.3136,1694.12613 C2236.0835,1694.8834 2235.84026,1695.62749 2235.59045,1696.37817 C2235.44582,1696.79961 2235.30119,1697.22763 2235.15656,1697.64907 C2234.99878,1698.10343 2234.83443,1698.55779 2234.67008,1699.01215 C2234.51887,1699.44675 2234.3611,1699.87477 2234.19674,1700.3028 C2234.07184,1700.63863 2233.94693,1700.97446 2233.82202,1701.30371 C2233.69711,1701.61978 2233.57878,1701.93586 2233.45387,1702.24535 C2233.15147,1703.0092 2232.84248,1703.76647 2232.52693,1704.52374 C2232.3823,1704.87274 2232.23109,1705.22832 2232.07989,1705.57733 C2231.84322,1706.13705 2231.59998,1706.69018 2231.35017,1707.24331 C2231.01489,1707.994 2230.66646,1708.74468 2230.31804,1709.48878 C2229.73294,1710.71357 2229.1347,1711.9252 2228.51674,1713.12366 C2228.10257,1713.92702 2227.67526,1714.7238 2227.24137,1715.51399 C2226.78118,1716.36345 2226.30785,1717.20632 2225.82137,1718.04261 C2225.74905,1718.1743 2225.67016,1718.306 2225.59127,1718.4377 C2225.46637,1718.655 2225.34146,1718.87231 2225.20998,1719.08961 C2225.11137,1719.26082 2225.00618,1719.43203 2224.901,1719.60323 C2224.59201,1720.12344 2224.28303,1720.63707 2223.9609,1721.15069 C2223.72424,1721.53262 2223.48757,1721.91455 2223.24433,1722.29647 C2222.66581,1723.20519 2222.07414,1724.10733 2221.46933,1725.00288 C2221.10118,1725.54943 2220.73303,1726.08281 2220.35831,1726.62277 C2220.0296,1727.09689 2219.69433,1727.56442 2219.35247,1728.03853 C2219.28016,1728.13731 2219.20784,1728.24267 2219.12896,1728.34802 C2219.09608,1728.39412 2219.05664,1728.4468 2219.0172,1728.49948 C2218.99747,1728.52582 2218.97775,1728.55216 2218.9646,1728.5785 C2218.94488,1728.60484 2218.92516,1728.62459 2218.90544,1728.65093 C2218.82655,1728.77605 2218.74109,1728.90116 2218.66877,1729.03286 C2218.59646,1729.16456 2218.53729,1729.30284 2218.4847,1729.44112 C2218.34664,1729.81647 2218.34664,1729.92182 2218.28747,1730.31692 L2218.28747,1730.46837 C2218.24145,1730.60007 2218.19544,1730.73836 2218.14942,1730.87664 C2218.13627,1730.92932 2218.11655,1730.982 2218.1034,1731.04126 C2218.09025,1731.08077 2218.0771,1731.12028 2218.06396,1731.16638 L2218.05738,1731.20589 C2218.03766,1731.26515 2218.02451,1731.31783 2218.01136,1731.37709 C2217.99821,1731.44294 2217.97849,1731.51538 2217.96534,1731.58123 C2217.93247,1731.71293 2217.91275,1731.84462 2217.88646,1731.97632 C2217.86673,1732.10144 2217.84701,1732.22655 2217.83386,1732.35825 C2217.78784,1732.6875 2217.76812,1733.02333 2217.76812,1733.35916 C2217.76812,1733.3855 2217.76812,1733.41842 2217.76812,1733.44476 C2217.76812,1733.52378 2217.76812,1733.6028 2217.76812,1733.68182 C2217.77469,1733.87278 2217.78784,1734.06375 2217.80757,1734.25471 C2217.82071,1734.41275 2217.84044,1734.57079 2217.86673,1734.72224 C2217.87331,1734.7815 2217.88646,1734.83418 2217.89303,1734.88686 C2217.89303,1734.90662 2217.8996,1734.92637 2217.90618,1734.94613 L2217.90618,1734.97905 C2217.91932,1735.05149 2217.93905,1735.12392 2217.9522,1735.20294 C2217.99164,1735.3939 2218.03766,1735.58487 2218.09682,1735.76924 C2218.10997,1735.83509 2218.1297,1735.90094 2218.14942,1735.96021 C2218.17571,1736.04581 2218.20201,1736.12483 2218.23488,1736.21043 C2218.23488,1736.21702 2218.24145,1736.23019 2218.24145,1736.23677 C2218.24803,1736.24994 2218.24803,1736.25653 2218.2546,1736.2697 C2218.2809,1736.34872 2218.31377,1736.42774 2218.34007,1736.51334 C2218.35979,1736.56602 2218.38608,1736.6187 2218.40581,1736.67138 C2218.47155,1736.836 2218.55044,1737.00063 2218.62933,1737.16525 C2218.72794,1737.37597 2218.8397,1737.5801 2218.95803,1737.78423 C2218.98433,1737.83033 2219.0172,1737.88301 2219.04349,1737.9291 C2219.06979,1737.96861 2219.08951,1738.00154 2219.11581,1738.03446 L2219.13553,1738.07397 C2219.37877,1738.4559 2219.65488,1738.81148 2219.95729,1739.14731 C2220.07562,1739.27901 2220.19396,1739.40413 2220.31886,1739.52266 C2220.35831,1739.56875 2220.39775,1739.60826 2220.44377,1739.64777 C2220.47664,1739.68069 2220.50951,1739.70703 2220.54238,1739.73996 L2220.56868,1739.7663 C2220.95655,1740.1153 2221.37729,1740.43138 2221.81775,1740.70794 C2222.19905,1740.945 2222.60007,1741.15572 2223.01424,1741.32693 C2223.17859,1741.39936 2223.34294,1741.45863 2223.50729,1741.51789 C2223.8097,1741.62325 2224.11211,1741.70885 2224.42109,1741.78129 C2225.03248,1741.91957 2225.65702,1741.99201 2226.27498,1741.99859 C2226.53794,1741.99859 2226.80091,1741.99201 2227.05729,1741.96567 C2227.40572,1741.93933 2227.74757,1741.88665 2228.08942,1741.81421 C2228.56933,1741.71544 2229.04924,1741.57057 2229.50285,1741.38619 C2229.67378,1741.32034 2229.8447,1741.24791 2230.01563,1741.16889 C2230.05507,1741.14913 2230.09452,1741.12938 2230.13396,1741.10963 C2230.29831,1741.02402 2230.46267,1740.93842 2230.62702,1740.84623 C2230.70591,1740.79355 2230.79137,1740.74745 2230.87683,1740.69477 C2230.9097,1740.66843 2230.94915,1740.64868 2230.98202,1740.62234 C2231.02146,1740.596 2231.06748,1740.56966 2231.10693,1740.54332 L2231.13322,1740.52357 C2231.18582,1740.49064 2231.23183,1740.45113 2231.28443,1740.41821 C2231.31072,1740.39845 2231.33702,1740.3787 2231.36332,1740.35894 C2231.41591,1740.31943 2231.46193,1740.28651 2231.51452,1740.247 C2231.52767,1740.23383 2231.54739,1740.22066 2231.56054,1740.20749 L2231.83665,1739.99019 L2232.32971,1739.549 C2261.47917,1710.34482 2290.62864,1681.14722 2319.7781,1651.94963 C2324.26162,1647.45871 2328.74515,1642.97437 2333.22209,1638.48344 C2335.46385,1636.23798 2337.70562,1633.99252 2339.94738,1631.74706 C2341.0321,1630.66054 2342.11025,1629.58061 2343.19497,1628.4941 C2343.85238,1627.83561 2344.50979,1627.17711 2345.16062,1626.52521 C2345.28553,1626.40009 2345.41043,1626.27498 2345.53534,1626.14986 C2345.68655,1625.99183 2345.84433,1625.83379 2345.99553,1625.66916 C2346.15988,1625.49796 2346.32423,1625.32016 2346.48201,1625.14237 C2346.58719,1625.02384 2346.69238,1624.89873 2346.79757,1624.7802 C2346.83701,1624.7341 2346.87646,1624.68142 2346.92247,1624.63533 C2347.09997,1624.41803 2347.27747,1624.20731 2347.4484,1623.99001 C2347.72451,1623.641 2347.98747,1623.28542 2348.25044,1622.91666 C2348.31618,1622.81789 2348.38849,1622.71911 2348.45423,1622.62034 C2348.65803,1622.32402 2348.85525,1622.02111 2349.0459,1621.7182 C2349.43377,1621.1058 2349.78877,1620.48024 2350.12405,1619.8415 C2350.37387,1619.34763 2350.61711,1618.84059 2350.84062,1618.33355 C2350.92609,1618.12942 2351.01155,1617.92528 2351.09701,1617.72115 C2351.24164,1617.37215 2351.37312,1617.02315 2351.49803,1616.66756 C2351.63609,1616.28563 2351.76099,1615.89712 2351.8859,1615.50203 C2351.92535,1615.36374 2351.96479,1615.21887 2352.01081,1615.08059 L2352.03053,1615.00816 C2352.20146,1614.38917 2352.35266,1613.7636 2352.48414,1613.13145 C2352.53016,1612.90098 2352.57618,1612.67051 2352.61563,1612.44662 C2352.71424,1611.86714 2352.79313,1611.28767 2352.85887,1610.7082 C2352.92461,1610.10238 2352.96405,1609.49657 2352.98377,1608.89075 C2353.01007,1608.17958 2353.0035,1607.46841 2352.97063,1606.75724 C2352.96405,1606.53335 2352.9509,1606.31604 2352.93118,1606.09216 C2352.92461,1605.99338 2352.91803,1605.89461 2352.91146,1605.79584 C2352.90489,1605.74974 2352.89831,1605.69706 2352.89831,1605.65097 L2352.89174,1605.57853 C2352.77998,1604.38666 2352.58276,1603.20137 2352.30664,1602.03584 C2352.21461,1601.63416 2352.10942,1601.23248 2351.99109,1600.8308 C2351.97137,1600.77153 2351.95822,1600.70568 2351.9385,1600.64642 C2351.92535,1600.61349 2351.91877,1600.58057 2351.90562,1600.54764 C2351.86618,1600.41595 2351.82674,1600.27766 2351.78729,1600.14596 C2351.70183,1599.88257 2351.62294,1599.61258 2351.53748,1599.34919 C2351.2022,1598.26926 2350.86035,1597.19591 2350.51192,1596.12257 C2350.34757,1595.6287 2350.18979,1595.12824 2350.02544,1594.63437 C2348.81581,1591.01266 2347.52729,1587.41729 2346.16645,1583.85484 C2345.58136,1582.31397 2344.98312,1580.77968 2344.37173,1579.25855 C2343.94441,1578.19838 2343.5171,1577.14479 2343.07664,1576.0912 C2342.4521,1574.58984 2341.81441,1573.09506 2341.17015,1571.60028 C2340.73626,1570.60595 2340.2958,1569.61821 2339.85534,1568.62389 C2339.74358,1568.38025 2339.63182,1568.13002 2339.52006,1567.88638 C2338.8495,1566.40477 2338.1658,1564.92316 2337.46895,1563.45472 C2337.13367,1562.75013 2336.79839,1562.03896 2336.45654,1561.33437 C2336.35793,1561.12365 2336.25274,1560.91952 2336.15413,1560.7088 C2335.56904,1559.51034 2334.98395,1558.31847 2334.3857,1557.1266 C2334.14246,1556.6459 2333.89922,1556.17178 2333.65598,1555.69766 C2332.95913,1554.32141 2332.24913,1552.95833 2331.52598,1551.59525 C2331.30904,1551.18699 2331.08552,1550.77214 2330.862,1550.35728 C2330.42153,1549.53417 2329.9745,1548.71105 2329.52089,1547.88793 C2329.09357,1547.1175 2328.66626,1546.34706 2328.23894,1545.57662 C2327.90366,1544.99056 2327.57496,1544.39792 2327.23311,1543.81186 C2326.70061,1542.87022 2326.15496,1541.93515 2325.60931,1541.00009 C2325.3595,1540.57866 2325.10311,1540.15064 2324.85329,1539.72262 C2324.71523,1539.49214 2324.57718,1539.25509 2324.43255,1539.02462 C2324.32736,1538.84682 2324.2156,1538.66244 2324.11042,1538.48465 C2324.03811,1538.35954 2323.96579,1538.24101 2323.89348,1538.12248 C2323.56477,1537.57593 2323.23607,1537.03596 2322.90079,1536.496 C2322.20394,1535.35681 2321.49394,1534.2242 2320.77736,1533.09159 C2319.72551,1531.4256 2318.65393,1529.77278 2317.55606,1528.13313 C2316.57652,1526.65152 2315.57069,1525.18308 2314.55828,1523.72123 C2313.92717,1522.81251 2313.28949,1521.90379 2312.64523,1521.00165 C2312.04699,1520.16537 2311.44217,1519.33566 2310.83735,1518.49938 C2309.98272,1517.33384 2309.12152,1516.1749 2308.24717,1515.02912 C2307.99735,1514.69987 2307.75411,1514.37721 2307.5043,1514.05455 C2306.73513,1513.05364 2305.95939,1512.05273 2305.17707,1511.06499 C2304.91411,1510.72916 2304.65115,1510.39991 2304.38818,1510.07066 C2303.83596,1509.37925 2303.28374,1508.69441 2302.72494,1508.00958 C2302.54744,1507.79228 2302.36994,1507.57497 2302.19244,1507.36426 C2301.11429,1506.05386 2300.023,1504.75662 2298.92512,1503.46598 C2298.30059,1502.74822 2297.68262,1502.03046 2297.05151,1501.3127 C2295.99308,1500.10766 2294.92151,1498.91579 2293.83679,1497.7305 C2293.46864,1497.32223 2293.09392,1496.92055 2292.71919,1496.51229 C2292.25243,1496.00525 2291.7791,1495.50479 2291.30577,1495.00434 C2286.89456,1490.32903 2282.28613,1485.83811 2277.49363,1481.5579 C2276.44177,1480.61626 2275.38335,1479.68778 2274.31177,1478.76589 C2273.61492,1478.16008 2272.91149,1477.56085 2272.20149,1476.96821 C2271.4389,1476.32947 2270.66973,1475.69731 2269.90057,1475.06516 C2269.23658,1474.52519 2268.5726,1473.99181 2267.90862,1473.45844 C2267.62594,1473.23455 2267.34982,1473.01724 2267.07371,1472.79994 C2266.01529,1471.96366 2264.94371,1471.13396 2263.87214,1470.32401 C2261.56463,1468.57242 2259.22426,1466.8735 2256.85102,1465.22069 C2256.41056,1464.91119 2255.96352,1464.6017 2255.51648,1464.29221 C2255.51648,1464.24611 2255.51648,1464.19344 2255.51648,1464.14734 C2255.51648,1454.81649 2247.95629,1447.23723 2238.64082,1447.23723 C2235.59702,1447.23723 2232.74387,1448.04718 2230.28517,1449.45636 C2229.30563,1448.96907 2228.31952,1448.48837 2227.33341,1448.01425 C2225.71618,1447.24382 2224.08581,1446.48655 2222.44887,1445.75562 C2221.96238,1445.53174 2221.46933,1445.31443 2220.97627,1445.09713 C2219.3196,1444.37279 2217.65636,1443.6682 2215.97997,1442.98337 C2214.66516,1442.44999 2213.34377,1441.92319 2212.0158,1441.40957 C2210.42487,1440.79717 2208.82737,1440.20452 2207.2233,1439.63163 C2204.499,1438.65048 2201.75761,1437.72859 2198.99913,1436.86596 C2195.99083,1435.91773 2192.96149,1435.04194 2189.91572,1434.2254 C2187.93955,1433.69202 2185.9555,1433.19157 2183.96552,1432.71087 C2180.72122,1431.94043 2177.46113,1431.23584 2174.18658,1430.59711 C2172.86979,1430.34029 2171.55103,1430.09665 2170.2303,1429.86618 C2165.59886,1429.04306 2160.94376,1428.36481 2156.27287,1427.81168 C2146.51168,1426.65932 2136.6854,1426.07984 2126.85716,1426.00741 C2124.14995,1425.98765 2121.44143,1426.00741 2118.73488,1426.06667 C2116.68114,1426.10618 2114.6274,1426.17203 2112.57497,1426.26422 C2110.40355,1426.35641 2108.23213,1426.47494 2106.06335,1426.62639 C2103.28185,1426.81077 2100.50233,1427.04124 2097.72807,1427.31781 C2092.69956,1427.81826 2087.68551,1428.47017 2082.69644,1429.27353 C2080.89449,1429.56327 2079.09516,1429.87276 2077.29978,1430.20201 C2073.14891,1430.97245 2069.0171,1431.84824 2064.9129,1432.83598 C2059.486,1434.1398 2054.10643,1435.64775 2048.79063,1437.35325 C2043.48864,1439.05216 2038.25041,1440.95521 2033.09304,1443.0558 C2029.49308,1444.51765 2025.93256,1446.08487 2022.41674,1447.74427 C2021.59564,1448.1262 2020.77651,1448.52129 2019.96066,1448.91639 C2019.44131,1449.1732 2018.92327,1449.43002 2018.4059,1449.68683 C2018.14753,1449.81194 2017.88983,1449.94364 2017.63213,1450.06875 C2014.9545,1448.28424 2011.73912,1447.23723 2008.28181,1447.23723 C1998.96569,1447.23723 1991.40155,1454.81649 1991.40155,1464.14734 C1991.40155,1464.64779 1991.4239,1465.14825 1991.46729,1465.64212 C1991.23983,1465.80016 1991.01302,1465.9582 1990.78688,1466.11624 C1986.12257,1469.38236 1981.58579,1472.83945 1977.18774,1476.45458 C1974.02889,1479.05563 1970.94105,1481.74228 1967.92683,1484.50795 C1966.28989,1486.0159 1964.67398,1487.54361 1963.08042,1489.09107 C1961.91352,1490.22368 1960.75911,1491.36945 1959.61588,1492.5284 C1958.91508,1493.23957 1958.21889,1493.95733 1957.5273,1494.67509 C1956.04681,1496.21596 1954.58737,1497.77001 1953.14896,1499.35039 C1951.94262,1500.67396 1950.75073,1502.00412 1949.57332,1503.35403 C1949.05528,1503.94668 1948.54053,1504.54591 1948.02775,1505.14513 C1947.54324,1505.71144 1947.06202,1506.27774 1946.58277,1506.84405 C1945.08322,1508.62856 1943.608,1510.43284 1942.15776,1512.25686 C1941.00532,1513.71213 1939.86932,1515.17399 1938.74844,1516.64901 C1938.16466,1517.41286 1937.58548,1518.1833 1937.01025,1518.96032 C1936.39558,1519.79002 1935.78484,1520.61973 1935.18003,1521.45601 C1934.89406,1521.85111 1934.60808,1522.2462 1934.32408,1522.6413 C1933.82708,1523.33272 1933.33271,1524.03072 1932.84229,1524.72872 C1931.54522,1526.57909 1930.27182,1528.44263 1929.02209,1530.31933 C1926.76324,1533.71716 1924.5813,1537.16108 1922.47431,1540.65109 C1921.47965,1542.30391 1920.50274,1543.95673 1919.54161,1545.6293 C1918.66989,1547.13725 1917.81263,1548.65837 1916.96917,1550.18608 C1916.44193,1551.14089 1915.92061,1552.10229 1915.40454,1553.06369 C1914.73727,1554.30166 1914.07855,1555.5528 1913.42903,1556.80393 C1912.97016,1557.68632 1912.51524,1558.57528 1912.06557,1559.46425 C1911.76908,1560.05031 1911.4739,1560.64295 1911.1807,1561.22901 C1910.85528,1561.8875 1910.53249,1562.53941 1910.21168,1563.1979 C1910.01906,1563.593 1909.82775,1563.9881 1909.63645,1564.38319 C1908.87451,1565.96358 1908.12638,1567.55054 1907.39206,1569.1441 C1907.14816,1569.67089 1906.90557,1570.20427 1906.66496,1570.73107 C1906.25606,1571.6332 1905.85241,1572.53534 1905.45336,1573.44406 C1904.58427,1575.41295 1903.73753,1577.38843 1902.91248,1579.37708 C1902.27677,1580.91137 1901.65354,1582.44566 1901.04478,1583.98654 C1900.60563,1585.10598 1900.1724,1586.21883 1899.74772,1587.33827 C1899.54524,1587.87165 1899.34407,1588.40503 1899.14487,1588.93841 C1898.16599,1591.56579 1897.22656,1594.20635 1896.33248,1596.86008 C1896.09976,1597.5515 1895.87033,1598.2495 1895.64418,1598.94092 C1895.52124,1599.31626 1895.39896,1599.6916 1895.278,1600.07353 L1895.1978,1600.31717 C1895.16821,1600.41595 1895.13863,1600.50813 1895.11036,1600.60032 C1895.07683,1600.71227 1895.04396,1600.82421 1895.01109,1600.93615 L1894.99137,1601.00859 C1894.89736,1601.33784 1894.80927,1601.66708 1894.72841,1602.00291 C1894.6482,1602.33216 1894.57392,1602.66799 1894.50686,1603.00382 C1894.46216,1603.22113 1894.4214,1603.44501 1894.38261,1603.6689 C1894.33659,1603.9323 1894.29518,1604.18911 1894.2577,1604.45909 C1894.19854,1604.87395 1894.14923,1605.2888 1894.11044,1605.70365 C1894.08678,1605.96046 1894.0664,1606.21727 1894.05062,1606.47408 C1894.02827,1606.82967 1894.01381,1607.17867 1894.00592,1607.52767 C1894.00131,1607.72522 1894,1607.92277 1894,1608.11373 C1894,1608.19934 1894.00066,1608.27836 1894.00131,1608.35737 C1894.00197,1608.41664 1894.00263,1608.4759 1894.00329,1608.53517 C1894.0046,1608.59443 1894.00592,1608.64711 1894.00723,1608.70638 C1894.01052,1608.86441 1894.01578,1609.02245 1894.02235,1609.18049 C1894.04405,1609.68753 1894.0802,1610.20116 1894.13214,1610.7082 C1894.26231,1611.98567 1894.48911,1613.26315 1894.80861,1614.5077 C1894.88356,1614.80402 1894.96376,1615.09376 1895.04857,1615.3835 C1895.19451,1615.87737 1895.35492,1616.37124 1895.52979,1616.85852 C1895.62445,1617.12192 1895.72372,1617.37873 1895.82628,1617.64213 C1895.93015,1617.89894 1896.03928,1618.16234 1896.1517,1618.41915 C1896.21546,1618.56402 1896.28055,1618.71548 1896.34695,1618.86034 C1896.53628,1619.26861 1896.73679,1619.67687 1896.94716,1620.08514 C1897.17462,1620.51975 1897.41458,1620.94777 1897.66636,1621.36262 C1897.77221,1621.54041 1897.87936,1621.7182 1897.98915,1621.88941 C1898.09762,1622.06062 1898.20873,1622.23183 1898.32114,1622.40304 C1898.37045,1622.47547 1898.41975,1622.5479 1898.46972,1622.62034 C1898.57096,1622.77179 1898.67483,1622.92325 1898.78001,1623.06812 C1898.92727,1623.27883 1899.07782,1623.48297 1899.23165,1623.6871 C1899.27701,1623.74636 1899.32303,1623.80563 1899.36839,1623.86489 C1899.47095,1623.99659 1899.57482,1624.12829 1899.68066,1624.25999 C1900.03829,1624.70776 1900.41038,1625.14237 1900.79628,1625.5638 C1900.92513,1625.70209 1901.0553,1625.84037 1901.18744,1625.97866 C1901.25055,1626.0445 1901.31432,1626.11035 1901.37875,1626.1762 C1901.42082,1626.21571 1901.46289,1626.26181 1901.50497,1626.30132 C1904.44555,1629.25795 1907.3868,1632.208 1910.32804,1635.15805 C1916.79628,1641.6508 1923.26714,1648.13696 1929.73932,1654.62311 C1936.21216,1661.10927 1942.68566,1667.58885 1949.16047,1674.07501 C1954.45786,1679.37588 1959.75591,1684.68333 1965.05462,1689.98421 C1973.29654,1698.23513 1981.53846,1706.48605 1989.77973,1714.73038 C1996.25519,1721.21654 2002.73,1727.69612 2009.20416,1734.18228 C2010.99033,1735.96679 2012.77585,1737.75789 2014.56203,1739.549 L2014.65801,1739.6346 L2014.68694,1739.66094 C2014.77306,1739.73996 2014.85852,1739.81898 2014.9453,1739.89141 C2014.98146,1739.92434 2015.01761,1739.95726 2015.05443,1739.99019 L2015.07415,1740.00994 C2015.18723,1740.10213 2015.30293,1740.2009 2015.42192,1740.28651 C2015.57378,1740.39845 2015.7309,1740.5104 2015.89065,1740.60917 C2015.98137,1740.66843 2016.07341,1740.7277 2016.16676,1740.78696 C2016.41592,1740.93183 2016.67363,1741.07011 2016.93725,1741.19523 C2017.45265,1741.43229 2017.99107,1741.62325 2018.54395,1741.75495 C2019.25395,1741.93274 2019.98565,1742.01176 2020.71603,1741.99859 C2021.47007,1741.98542 2022.22346,1741.86689 2022.94793,1741.65617 C2023.45216,1741.51131 2023.94258,1741.32034 2024.41132,1741.08329 C2024.6631,1740.95159 2024.90766,1740.8133 2025.14564,1740.66185 C2025.57953,1740.39187 2025.98844,1740.07579 2026.36645,1739.72679 C2026.52291,1739.58192 2026.67411,1739.43047 2026.8194,1739.27243 C2026.96995,1739.11439 2027.11523,1738.94318 2027.25329,1738.77197 C2027.28945,1738.72588 2027.32495,1738.67979 2027.35979,1738.63369 C2027.37885,1738.61393 2027.39726,1738.5876 2027.41567,1738.56126 L2027.43408,1738.53492 C2027.51494,1738.42956 2027.59317,1738.31761 2027.66877,1738.20567 C2027.71085,1738.13982 2027.75292,1738.08056 2027.79368,1738.01471 C2027.96921,1737.73814 2028.12896,1737.4484 2028.27162,1737.15208 C2028.31763,1737.05989 2028.36168,1736.96112 2028.40441,1736.86234 C2028.4077,1736.85576 2028.4123,1736.84917 2028.41559,1736.836 C2028.45503,1736.7504 2028.4925,1736.65821 2028.52932,1736.56602 L2028.5451,1736.51993 C2028.59243,1736.4014 2028.63648,1736.27628 2028.67789,1736.15776 C2028.74692,1735.95362 2028.80806,1735.7429 2028.86131,1735.53219 C2028.87906,1735.46634 2028.8955,1735.3939 2028.91193,1735.32147 C2028.92245,1735.27538 2028.93297,1735.22928 2028.94217,1735.18318 C2028.95729,1735.11734 2028.9711,1735.0449 2028.98359,1734.97247 C2028.99148,1734.93296 2028.99871,1734.88686 2029.0066,1734.84735 L2029.01317,1734.80784 C2029.03881,1734.64981 2029.0605,1734.49177 2029.0776,1734.33373 C2029.08483,1734.26129 2029.09206,1734.18228 2029.09798,1734.10984 L2029.10126,1734.07033 C2029.10652,1733.9979 2029.11113,1733.92546 2029.11507,1733.85961 C2029.11836,1733.79376 2029.12033,1733.7345 2029.1223,1733.66865 L2029.12362,1733.62914 C2029.12427,1733.58963 2029.12559,1733.54354 2029.12559,1733.50403 L2029.12625,1733.45793 C2029.1269,1733.2999 2029.12296,1733.14186 2029.11507,1732.98382 C2029.11244,1732.92455 2029.1085,1732.86529 2029.10455,1732.80602 L2029.10126,1732.75993 C2029.0914,1732.63482 2029.07825,1732.50312 2029.06248,1732.37142 C2029.05393,1732.29899 2029.04341,1732.22655 2029.03289,1732.15412 L2029.02698,1732.11461 C2028.98556,1731.84462 2028.93165,1731.57464 2028.86525,1731.31124 C2028.84882,1731.2454 2028.83173,1731.18613 2028.81398,1731.12028 C2028.79886,1731.0676 2028.78308,1731.01492 2028.7673,1730.95566 C2028.73377,1730.84372 2028.69762,1730.73177 2028.65949,1730.61983 C2028.64962,1730.59349 2028.63976,1730.56715 2028.6299,1730.53422 L2028.61938,1730.50788 C2028.61215,1730.48813 2028.61215,1730.48813 2028.60492,1730.46837 C2028.60426,1730.41569 2028.60886,1730.36301 2028.60295,1730.31692 C2028.56416,1729.9745 2028.52866,1729.76379 2028.40967,1729.44112 C2028.35773,1729.30284 2028.28674,1729.17114 2028.22494,1729.03286 L2027.9863,1728.65752 C2027.68915,1728.24925 2027.39397,1727.84099 2027.10209,1727.42613 C2026.51831,1726.6096 2025.94439,1725.7799 2025.38165,1724.94361 C2024.97274,1724.3378 2024.56844,1723.7254 2024.1707,1723.10642 C2023.94653,1722.764 2023.72367,1722.415 2023.50344,1722.066 C2023.43046,1721.94747 2023.35749,1721.83553 2023.28452,1721.717 C2023.21155,1721.60505 2023.13857,1721.48652 2023.0656,1721.368 C2022.96896,1721.21654 2022.87232,1721.0585 2022.77634,1720.90047 C2022.6797,1720.74243 2022.58438,1720.59097 2022.48905,1720.43294 L2022.41806,1720.31441 C2022.3464,1720.20246 2022.2754,1720.08393 2022.20374,1719.96541 C2021.96773,1719.57031 2021.73304,1719.1818 2021.50097,1718.7867 C2021.03684,1717.99651 2020.58191,1717.19973 2020.13619,1716.39637 C2019.97973,1716.1198 2019.82524,1715.83665 2019.6714,1715.56009 C2019.24212,1714.76989 2018.82203,1713.9797 2018.4105,1713.18951 C2018.31517,1713.00513 2018.21985,1712.82075 2018.12584,1712.63637 C2017.99304,1712.37298 2017.86156,1712.11616 2017.73008,1711.85277 C2017.56244,1711.51694 2017.39677,1711.18111 2017.23242,1710.84527 L2017.17786,1710.73333 C2016.9951,1710.35799 2016.81431,1709.98923 2016.6355,1709.6073 C2016.33177,1708.96857 2016.03397,1708.32983 2015.74208,1707.6845 C2015.67305,1707.53305 2015.60468,1707.3816 2015.53697,1707.23014 C2015.33646,1706.78237 2015.13989,1706.33459 2014.9453,1705.88682 C2014.60213,1705.09663 2014.26751,1704.29985 2013.94144,1703.50307 C2013.38067,1702.12682 2012.84554,1700.7374 2012.33736,1699.34139 C2012.08163,1698.63681 2011.83379,1697.9388 2011.59186,1697.22763 C2011.54847,1697.10252 2011.50508,1696.9774 2011.46235,1696.85229 C2011.3907,1696.64157 2011.31969,1696.43085 2011.25001,1696.22014 C2011.09486,1695.75261 2010.94366,1695.28508 2010.79443,1694.81755 C2010.69976,1694.52122 2010.60641,1694.2249 2010.51437,1693.92858 C2010.22445,1692.99352 2009.94637,1692.05187 2009.67946,1691.11023 C2009.34813,1689.93811 2009.03454,1688.75941 2008.73937,1687.57412 C2008.57305,1686.90904 2008.41264,1686.23738 2008.25815,1685.56571 C2008.12272,1684.97966 2007.9919,1684.3936 2007.86502,1683.80095 C2007.76575,1683.34001 2007.66911,1682.87906 2007.5751,1682.41153 C2007.4022,1681.55549 2007.23982,1680.69945 2007.08599,1679.84341 C2007.0564,1679.67878 2007.02814,1679.52075 2006.99987,1679.35612 C2006.9006,1678.78982 2006.80593,1678.22351 2006.71587,1677.65721 C2006.67051,1677.37406 2006.6258,1677.09091 2006.58307,1676.80775 C2006.49629,1676.24145 2006.41412,1675.66856 2006.33589,1675.10226 C2006.17679,1673.94331 2006.03545,1672.78436 2005.91054,1671.62541 C2005.88359,1671.37518 2005.85795,1671.12496 2005.83231,1670.87473 C2005.75079,1670.06478 2005.67651,1669.25484 2005.61142,1668.4383 C2005.59564,1668.24076 2005.57921,1668.03662 2005.56475,1667.83908 C2005.53188,1667.39788 2005.50098,1666.95669 2005.47205,1666.50892 C2005.45233,1666.20601 2005.43392,1665.89652 2005.41683,1665.58703 C2005.38922,1665.09974 2005.3649,1664.60587 2005.3432,1664.11859 C2005.32808,1663.78276 2005.31493,1663.44034 2005.3031,1663.10451 C2005.27352,1662.27481 2005.25248,1661.44511 2005.24064,1660.6154 C2005.23407,1660.20055 2005.23013,1659.79229 2005.22815,1659.37744 C2005.2275,1659.13379 2005.2275,1658.89674 2005.2275,1658.65968 L2005.2275,1658.52798 C2005.22881,1658.21849 2005.23013,1657.909 2005.23341,1657.5995 C2005.2459,1656.40763 2005.27549,1655.22234 2005.32216,1654.03047 C2005.34189,1653.54318 2005.36424,1653.06248 2005.38922,1652.5752 C2005.40039,1652.3579 2005.41223,1652.14059 2005.42538,1651.91671 C2005.45825,1651.3504 2005.4944,1650.7841 2005.53516,1650.21779 C2005.55817,1649.89513 2005.58315,1649.56589 2005.60945,1649.24322 C2005.63246,1648.95349 2005.65613,1648.67034 2005.68111,1648.3806 C2005.74948,1647.60358 2005.82442,1646.82655 2005.90791,1646.05612 C2005.973,1645.44372 2006.04334,1644.83132 2006.11828,1644.21892 C2006.15839,1643.89626 2006.20046,1643.56701 2006.24253,1643.24435 C2006.28921,1642.88876 2006.3372,1642.53976 2006.38651,1642.18418 C2006.53508,1641.13059 2006.6968,1640.08358 2006.87299,1639.03658 C2007.0117,1638.21346 2007.15896,1637.39034 2007.31477,1636.56723 C2007.38511,1636.19847 2007.45808,1635.82313 2007.53237,1635.45437 C2007.59219,1635.15805 2007.65267,1634.86173 2007.71447,1634.55882 C2007.82294,1634.0452 2007.93404,1633.52499 2008.04975,1633.00478 C2008.20621,1632.30019 2008.36925,1631.5956 2008.53886,1630.8976 C2009.00628,1628.96163 2009.523,1627.03883 2010.08771,1625.13578 C2010.24286,1624.60899 2010.4013,1624.08878 2010.56368,1623.56857 C2010.73592,1623.01544 2010.9121,1622.4623 2011.09223,1621.91575 C2011.15271,1621.73137 2011.21319,1621.54699 2011.27433,1621.36262 C2011.38083,1621.03996 2011.48865,1620.72388 2011.59778,1620.40122 C2011.87126,1619.61103 2012.15197,1618.81425 2012.44189,1618.02406 C2012.55628,1617.71456 2012.67133,1617.40507 2012.78834,1617.09558 C2013.00266,1616.52269 2013.22223,1615.95639 2013.44575,1615.39008 C2013.50755,1615.23205 2013.57,1615.07401 2013.63246,1614.91597 C2013.82902,1614.42868 2014.02887,1613.93481 2014.23201,1613.44753 C2014.76583,1612.15688 2015.32331,1610.8794 2015.90249,1609.6151 L2051.35452,1630.61445 C2047.45609,1639.91896 2045.30177,1650.13877 2045.30177,1660.85905 C2045.30177,1704.08913 2080.34161,1739.18683 2123.50043,1739.18683 C2166.65992,1739.18683 2201.6991,1704.08913 2201.6991,1660.85905 C2201.6991,1635.15147 2189.3063,1612.31492 2170.18297,1598.0322 Z M2058.44785,1616.86231 L2023.04543,1595.82539 C2023.17996,1595.61443 2023.31448,1595.39687 2023.44967,1595.18591 C2024.09342,1594.17065 2024.75292,1593.16199 2025.42686,1592.15992 C2025.83896,1591.5534 2026.25697,1590.94688 2026.68024,1590.34696 C2027.19734,1589.60859 2027.72297,1588.88341 2028.25648,1588.15822 C2028.83001,1587.3803 2029.41405,1586.60897 2030.00662,1585.84423 C2030.86561,1584.73667 2031.74429,1583.64231 2032.642,1582.56772 C2033.01998,1582.11283 2033.40059,1581.66453 2033.78513,1581.21624 C2033.93869,1581.03824 2034.09355,1580.86024 2034.24842,1580.68224 C2034.50566,1580.38557 2034.76487,1580.08891 2035.02539,1579.79883 C2035.3909,1579.3835 2035.75904,1578.97476 2036.12981,1578.57261 C2036.26236,1578.42758 2036.39557,1578.28254 2036.52813,1578.1375 C2036.60819,1578.0518 2036.68825,1577.96609 2036.76831,1577.8738 C2036.79521,1577.84743 2036.82212,1577.82106 2036.84902,1577.78809 C2036.87593,1577.76172 2036.90546,1577.73535 2036.93105,1577.70239 C2037.02817,1577.58372 2037.12923,1577.47165 2037.21651,1577.34639 C2037.30313,1577.22113 2037.38122,1577.09587 2037.44946,1576.95743 C2037.58727,1576.68713 2037.68636,1576.39706 2037.74411,1576.10039 C2037.77298,1575.95536 2037.79201,1575.80373 2037.79989,1575.6521 C2037.80776,1575.50047 2037.80579,1575.34884 2037.79267,1575.19721 C2037.76642,1574.89395 2037.69883,1574.59729 2037.59121,1574.31381 C2037.48293,1574.02373 2037.33594,1573.76003 2037.15482,1573.5161 C2037.06426,1573.39744 2036.9573,1573.28536 2036.85821,1573.17329 L2029.37074,1565.61819 C2029.08135,1565.36108 2029.019,1565.28197 2028.68302,1565.0842 C2028.30635,1564.86664 2027.88637,1564.7282 2027.45458,1564.67546 C2027.02344,1564.62271 2026.58246,1564.66227 2026.1651,1564.78094 C2025.88621,1564.86664 2025.61978,1564.98531 2025.37305,1565.13694 C2025.24968,1565.20945 2025.13681,1565.30175 2025.01869,1565.38745 L2024.70108,1565.68412 C2024.38412,1566.02034 2024.06782,1566.36316 2023.75415,1566.70597 C2023.49626,1566.98945 2023.24033,1567.26634 2022.98506,1567.54982 C2022.64514,1567.9256 2022.30719,1568.30797 2021.9712,1568.69034 C2020.5728,1570.27255 2019.21114,1571.89433 2017.88754,1573.54247 C2016.42745,1575.36203 2015.01461,1577.22113 2013.64967,1579.1132 C2013.10042,1579.87135 2012.55904,1580.64268 2012.02553,1581.41401 C2011.90019,1581.59201 2011.77551,1581.77661 2011.65083,1581.9612 C2011.05892,1582.82482 2010.47685,1583.70164 2009.90528,1584.57845 C2009.20838,1585.65304 2008.52591,1586.73422 2007.85919,1587.82859 C2006.7154,1589.70089 2005.61688,1591.60614 2004.56431,1593.53117 C2004.12004,1594.34865 2003.68366,1595.16613 2003.2558,1595.9902 C2003.21315,1596.07591 2003.17049,1596.15502 2003.1285,1596.24072 C2002.95788,1596.57035 2002.78923,1596.89998 2002.62124,1597.22961 C2002.3745,1597.71746 2002.13104,1598.20531 2001.89021,1598.69316 C2001.61853,1599.24694 2001.35014,1599.80731 2001.08568,1600.36109 C2000.54299,1601.50819 2000.01539,1602.66189 1999.50485,1603.82219 C1998.95822,1605.06159 1998.43062,1606.30759 1997.92139,1607.56677 C1997.5585,1608.46336 1997.2048,1609.36655 1996.86028,1610.26973 C1996.54595,1611.10039 1996.24015,1611.92447 1995.94157,1612.76173 C1995.67515,1613.50669 1995.41528,1614.25165 1995.16133,1615.0032 C1994.96709,1615.57676 1994.77744,1616.15031 1994.59042,1616.73046 C1994.20193,1617.93031 1993.83051,1619.13675 1993.47616,1620.34978 C1993.02205,1621.90563 1992.59616,1623.46148 1992.19784,1625.03051 C1991.7877,1626.6457 1991.40709,1628.26747 1991.05667,1629.90243 C1990.56976,1632.16368 1990.14124,1634.44472 1989.77048,1636.73234 C1989.70617,1637.1279 1989.64383,1637.53004 1989.5828,1637.9256 C1989.55524,1638.1036 1989.52833,1638.28819 1989.50143,1638.46619 C1989.36756,1639.36937 1989.24288,1640.26596 1989.12738,1641.16915 C1988.85243,1643.31833 1988.62866,1645.46751 1988.45541,1647.62328 C1988.38914,1648.44735 1988.33139,1649.27143 1988.2802,1650.0955 C1988.25724,1650.45809 1988.23624,1650.82068 1988.21655,1651.18327 C1988.19883,1651.5195 1988.18243,1651.84912 1988.16668,1652.17875 C1988.14109,1652.73912 1988.11746,1653.29949 1988.09843,1653.86645 C1988.07678,1654.49275 1988.05971,1655.11904 1988.04659,1655.74534 C1988.021,1656.95178 1988.01181,1658.15163 1988.01837,1659.35807 C1988.02756,1661.24355 1988.07612,1663.12903 1988.1634,1665.0145 C1988.21458,1666.12865 1988.27955,1667.2362 1988.35764,1668.34376 C1988.39176,1668.8382 1988.42982,1669.33264 1988.46985,1669.82709 C1988.48757,1670.04464 1988.50594,1670.2622 1988.52497,1670.47975 C1988.54335,1670.69071 1988.56238,1670.90827 1988.58207,1671.12582 C1988.60569,1671.38293 1988.63062,1671.64664 1988.65556,1671.91034 C1988.67262,1672.08175 1988.68969,1672.25315 1988.7074,1672.43115 C1988.74678,1672.82012 1988.78746,1673.20908 1988.83012,1673.59804 C1988.86818,1673.94745 1988.90755,1674.29026 1988.94824,1674.63967 C1988.96333,1674.77152 1988.97908,1674.89678 1988.99417,1675.02863 C1989.02042,1675.24619 1989.04667,1675.46374 1989.07357,1675.6747 C1989.12279,1676.06367 1989.17266,1676.45263 1989.2245,1676.84159 C1989.37675,1677.98211 1989.54277,1679.11603 1989.72389,1680.24995 C1989.86235,1681.11358 1990.00934,1681.97721 1990.16421,1682.84084 C1990.23443,1683.23639 1990.30596,1683.62535 1990.37945,1684.01431 C1990.48576,1684.57468 1990.59535,1685.14165 1990.70887,1685.70201 C1990.77843,1686.04483 1990.84996,1686.39424 1990.92215,1686.73705 C1990.94971,1686.8689 1990.97727,1686.99416 1991.00483,1687.12601 C1991.05995,1687.38312 1991.11508,1687.64023 1991.17217,1687.90394 C1991.27651,1688.3786 1991.38347,1688.85327 1991.49306,1689.32793 C1991.5344,1689.51253 1991.5764,1689.69053 1991.61839,1689.86852 C1991.74439,1690.40252 1991.87366,1690.93652 1992.00556,1691.47052 C1992.04953,1691.64852 1992.09415,1691.82652 1992.13878,1692.00452 C1992.1729,1692.14296 1992.20637,1692.27482 1992.24049,1692.40667 C1992.26346,1692.49896 1992.28643,1692.58467 1992.30939,1692.67696 C1992.33696,1692.78245 1992.36517,1692.89452 1992.39339,1693 L1955,1655.43549 C1955.02756,1654.10379 1955.07153,1652.77868 1955.12993,1651.45357 C1955.16734,1650.59653 1955.2113,1649.7395 1955.26249,1648.88246 C1955.29727,1648.29572 1955.33402,1647.71558 1955.3747,1647.13543 C1955.41079,1646.62121 1955.44886,1646.10699 1955.48888,1645.59277 C1955.52629,1645.11151 1955.56632,1644.63025 1955.60766,1644.15558 C1955.6641,1643.50951 1955.72381,1642.86344 1955.78681,1642.22396 C1955.87934,1641.28781 1955.97908,1640.35167 1956.08736,1639.41552 C1956.10704,1639.24411 1956.12673,1639.0793 1956.14642,1638.90789 C1956.23107,1638.19589 1956.31966,1637.4839 1956.4135,1636.7719 C1956.47978,1636.26427 1956.54868,1635.75664 1956.62021,1635.24901 C1956.65827,1634.97872 1956.69633,1634.70842 1956.73636,1634.43812 C1956.89385,1633.35694 1957.06119,1632.27576 1957.23968,1631.19457 C1957.47395,1629.78376 1957.72528,1628.37295 1957.99565,1626.96214 C1958.22663,1625.7557 1958.47009,1624.55585 1958.72668,1623.356 C1958.97144,1622.21548 1959.22868,1621.07497 1959.49773,1619.93445 C1959.54367,1619.74327 1959.59026,1619.54549 1959.63751,1619.34771 C1959.87047,1618.3786 1960.11261,1617.40949 1960.36329,1616.44038 C1960.69009,1615.1812 1961.03066,1613.92202 1961.38699,1612.66943 C1961.78597,1611.26521 1962.20267,1609.86758 1962.6384,1608.46996 C1962.87005,1607.73159 1963.10629,1606.99322 1963.34843,1606.25485 C1963.48361,1605.83952 1963.62076,1605.42419 1963.75923,1605.01545 C1963.99743,1604.31004 1964.23958,1603.60463 1964.48697,1602.89923 C1964.87677,1601.78508 1965.27838,1600.68412 1965.69114,1599.57657 C1965.99956,1598.75909 1966.31455,1597.93502 1966.63544,1597.11754 C1966.78965,1596.72857 1966.94452,1596.33961 1967.10135,1595.94406 C1967.54233,1594.84969 1967.99513,1593.75532 1968.45907,1592.66755 C1968.72288,1592.04784 1968.9893,1591.43473 1969.26032,1590.81503 C1978.05301,1590.25466 1985.0201,1582.89734 1985.0201,1573.92484 C1985.0201,1570.96478 1984.26348,1568.18271 1982.93398,1565.76323 C1983.43992,1564.99849 1983.95112,1564.24035 1984.46953,1563.4822 C1984.81011,1562.98776 1985.15397,1562.48672 1985.4998,1561.99228 C1986.75777,1560.1991 1988.05053,1558.42569 1989.3774,1556.67866 C1989.81641,1556.1051 1990.26002,1555.52496 1990.70691,1554.9514 C1991.03698,1554.52948 1991.36838,1554.10755 1991.70239,1553.69222 C1992.28183,1552.96044 1992.86653,1552.24185 1993.45778,1551.52326 C1993.93485,1550.94311 1994.41586,1550.36297 1994.90081,1549.78941 C1995.68565,1548.85986 1996.48033,1547.94349 1997.2842,1547.03372 C2001.34817,1542.4255 2005.66019,1538.04803 2010.19533,1533.91448 C2011.99272,1532.27293 2013.82488,1530.67753 2015.69052,1529.11509 C2016.72997,1528.24487 2017.77992,1527.38783 2018.84037,1526.55057 C2019.64359,1525.91109 2020.45205,1525.27821 2021.26708,1524.65191 C2021.72971,1524.29591 2022.19366,1523.9465 2022.66023,1523.5971 C2023.81321,1522.73347 2024.97669,1521.88303 2026.15132,1521.04577 C2027.61141,1520.00414 2029.08856,1518.99548 2030.58146,1518 L2051.8115,1555.0437 C2052.7407,1556.66547 2054.27364,1557.85214 2056.07299,1558.33999 C2057.87169,1558.82784 2059.78982,1558.57732 2061.40412,1557.64118 L2068.40796,1553.58674 C2068.89094,1553.33622 2069.37523,1553.0857 2069.86149,1552.83518 C2071.06959,1552.22208 2072.28819,1551.62215 2073.51729,1551.0486 C2074.34282,1550.66623 2075.17293,1550.29045 2076.00699,1549.92786 C2076.6409,1549.64438 2077.27678,1549.37408 2077.91593,1549.11038 C2078.32082,1548.93897 2078.72768,1548.77416 2079.13453,1548.60934 C2080.18711,1548.18082 2081.24559,1547.77208 2082.30933,1547.37653 C2083.23197,1547.03372 2084.15921,1546.70409 2085.08973,1546.38764 C2086.39823,1545.93935 2087.71396,1545.51083 2089.03755,1545.10868 C2091.25164,1544.44283 2093.48672,1543.83631 2095.7369,1543.29572 C2096.70155,1543.06498 2097.66947,1542.84743 2098.64002,1542.64306 C2100.39082,1542.26728 2102.1508,1541.93765 2103.91669,1541.64758 C2105.58611,1541.37069 2107.26078,1541.13336 2108.94005,1540.92899 C2113.3131,1540.40817 2117.71634,1540.12469 2122.12089,1540.08514 C2122.55137,1540.08514 2122.98119,1540.08514 2123.41167,1540.08514 C2123.91893,1540.08514 2124.42553,1540.09173 2124.93214,1540.09832 C2125.38952,1540.10492 2125.84691,1540.11151 2126.30364,1540.12469 C2126.95592,1540.14447 2127.6082,1540.16425 2128.26049,1540.19062 C2129.67661,1540.25654 2131.09207,1540.34225 2132.50492,1540.45432 C2133.79767,1540.55321 2135.08845,1540.67847 2136.37661,1540.82351 C2138.07163,1541.01469 2139.76271,1541.23884 2141.44788,1541.50254 C2144.40875,1541.97061 2147.3519,1542.55076 2150.26879,1543.23639 C2151.41324,1543.50669 2152.5531,1543.79676 2153.68901,1544.10661 C2154.69303,1544.37031 2155.69377,1544.65379 2156.69057,1544.95705 C2157.88226,1545.30646 2159.06739,1545.68224 2160.24728,1546.07779 C2160.87397,1546.28216 2161.5,1546.49972 2162.12341,1546.71727 C2162.79669,1546.95461 2163.46801,1547.19853 2164.13735,1547.44905 C2165.08821,1547.80505 2166.03448,1548.16764 2166.97616,1548.55001 C2168.6003,1549.20267 2170.20935,1549.89489 2171.802,1550.62008 C2173.89731,1551.576 2175.96441,1552.59126 2178,1553.67244 L2156.67941,1589.83274 C2146.52637,1584.97401 2135.1672,1582.25127 2123.18003,1582.25127 C2096.24547,1582.25127 2072.47915,1595.9902 2058.44785,1616.86231 Z M2109.95034,1492 C2107.39083,1492.203 2104.83592,1492.46494 2102.2889,1492.78582 C2094.68663,1493.7419 2087.1501,1495.21532 2079.75033,1497.19952 C2076.99884,1497.9395 2074.2651,1498.74497 2071.55503,1499.62247 C2067.37289,1500.97146 2063.24401,1502.49071 2059.18153,1504.16713 C2057.41755,1504.89402 2055.66672,1505.65365 2053.92838,1506.43947 C2053.39452,1506.68176 2052.86197,1506.92406 2052.33008,1507.1729 C2050.7548,1507.90633 2049.19069,1508.66596 2047.63907,1509.44523 C2046.41816,1510.06079 2045.20513,1510.696 2044,1511.33775 L2060.35313,1539.62732 C2061.36431,1539.09689 2062.38273,1538.57301 2063.40772,1538.06877 C2064.07504,1537.7348 2064.745,1537.41392 2065.41759,1537.09305 C2068.15922,1535.78989 2070.9449,1534.57842 2073.76871,1533.46517 C2075.41172,1532.81687 2077.06722,1532.20131 2078.73521,1531.61849 C2079.58925,1531.31726 2080.44659,1531.02913 2081.30721,1530.74754 C2081.72338,1530.61002 2082.14022,1530.47905 2082.55771,1530.34808 C2083.17112,1530.15163 2083.78585,1529.96172 2084.40256,1529.77836 C2086.59652,1529.11696 2088.80757,1528.50795 2091.03244,1527.96442 C2093.2974,1527.4078 2095.57618,1526.91011 2097.86679,1526.47136 C2100.03971,1526.05226 2102.22381,1525.68554 2104.41514,1525.37776 C2107.31719,1524.97175 2110.23239,1524.65088 2113.15483,1524.42823 C2115.36062,1524.26451 2117.56971,1524.14664 2119.78076,1524.0877 C2120.52172,1524.06806 2121.26335,1524.05496 2122.00497,1524.04841 C2122.48689,1524.04186 2122.96881,1524.03532 2123.45139,1524.03532 C2123.60392,1524.03532 2123.7558,1524.03532 2123.90833,1524.03532 C2124.10688,1524.03532 2124.30544,1524.04186 2124.50333,1524.04186 C2124.94055,1524.04186 2125.37711,1524.04841 2125.81432,1524.05496 C2127.11873,1524.07461 2128.42314,1524.1139 2129.7269,1524.17284 C2130.74991,1524.21867 2131.77227,1524.27761 2132.79397,1524.34964 C2134.70917,1524.47407 2136.62239,1524.64433 2138.53101,1524.85388 C2139.8775,1525.0045 2141.22202,1525.16821 2142.56391,1525.35811 C2143.9413,1525.55457 2145.31671,1525.76412 2146.68753,1525.99987 C2147.51988,1526.14394 2148.35092,1526.29455 2149.17998,1526.45172 C2151.19314,1526.83808 2153.19709,1527.27028 2155.19053,1527.74832 C2157.14649,1528.21327 2159.09258,1528.72405 2161.02553,1529.28067 C2162.04066,1529.56881 2163.0525,1529.87004 2164.06039,1530.18437 C2164.7001,1530.38737 2165.3385,1530.59038 2165.97493,1530.79993 C2166.80399,1531.07496 2167.62911,1531.35655 2168.45226,1531.64469 C2168.90657,1531.80185 2169.36022,1531.96556 2169.81255,1532.12928 C2170.614,1532.41741 2171.41217,1532.71864 2172.2077,1533.01987 C2173.46017,1533.50446 2174.70541,1534.00215 2175.94342,1534.51948 C2176.93882,1534.93859 2177.92896,1535.36424 2178.91385,1535.80954 C2179.65349,1536.13697 2180.3892,1536.47749 2181.12227,1536.81801 C2182.36291,1537.40083 2183.595,1538.00329 2184.81723,1538.61885 C2185.94872,1539.19512 2187.07233,1539.78449 2188.18674,1540.38695 C2188.7561,1540.69473 2189.32284,1541.00906 2189.88694,1541.32993 C2190.40437,1541.61807 2190.92048,1541.91275 2191.43396,1542.20743 C2193.25908,1543.26829 2195.05922,1544.36189 2196.83306,1545.50134 C2199.71605,1547.35456 2202.52803,1549.31912 2205.26177,1551.3819 C2205.89293,1551.85994 2206.5195,1552.34453 2207.1408,1552.82912 C2208.71214,1554.06024 2210.25719,1555.33065 2211.77593,1556.62726 C2212.51887,1557.26246 2213.24865,1557.90422 2213.97844,1558.55907 C2214.35977,1558.89959 2214.73453,1559.24011 2215.11586,1559.58718 C2215.97714,1560.373 2216.83184,1561.17847 2217.6734,1561.99049 C2218.31771,1562.61259 2218.96203,1563.24125 2219.59319,1563.87646 C2219.96138,1564.24317 2220.32298,1564.61644 2220.68459,1564.9897 C2221.72338,1566.05056 2222.74245,1567.13107 2223.7418,1568.23122 C2224.7543,1569.33792 2225.74707,1570.45771 2226.71354,1571.59715 C2227.68659,1572.73659 2228.63992,1573.88913 2229.57352,1575.06131 C2230.80298,1576.59367 2231.99299,1578.15876 2233.15013,1579.75005 C2233.64323,1580.42455 2234.12975,1581.09904 2234.6097,1581.78664 C2234.82009,1582.08132 2235.0239,1582.38255 2235.23429,1582.68378 C2235.67479,1583.31899 2236.10872,1583.96074 2236.53607,1584.6025 C2236.9963,1585.30319 2237.45653,1586.00388 2237.91018,1586.71112 C2238.17974,1587.13677 2238.4493,1587.56242 2238.71229,1587.99462 C2239.37632,1589.05548 2240.02064,1590.12944 2240.65181,1591.20994 C2241.17778,1592.10709 2241.6906,1593.01078 2242.19028,1593.91448 C2242.2889,1594.09129 2242.38752,1594.2681 2242.47956,1594.44491 C2242.80172,1595.02118 2243.11073,1595.61054 2243.41974,1596.19336 C2243.82079,1596.95299 2244.21527,1597.71262 2244.60317,1598.47879 C2244.73467,1598.74728 2244.87273,1599.00922 2245.00423,1599.27771 C2245.20804,1599.69027 2245.41186,1600.10282 2245.6091,1600.52193 C2245.83263,1600.97377 2246.0496,1601.43217 2246.25999,1601.88402 C2246.39148,1602.15905 2246.5164,1602.43409 2246.64132,1602.70913 C2246.78596,1603.01691 2246.92403,1603.32469 2247.06209,1603.62592 C2247.48945,1604.582 2247.91022,1605.53154 2248.31785,1606.49417 C2248.67946,1607.34547 2249.03449,1608.20333 2249.37637,1609.06118 C2249.54074,1609.47374 2249.69853,1609.87975 2249.85632,1610.28576 C2250.05356,1610.79654 2250.2508,1611.30732 2250.44146,1611.82466 C2250.69788,1612.5057 2250.94771,1613.18675 2251.19097,1613.87434 C2251.35534,1614.33274 2251.51971,1614.79768 2251.6775,1615.26262 C2251.76955,1615.53111 2251.86159,1615.7996 2251.95363,1616.06809 C2252.0654,1616.40861 2252.17717,1616.74259 2252.28894,1617.08311 C2252.52563,1617.81 2252.75574,1618.54343 2252.98586,1619.27686 C2253.70907,1621.63433 2254.37311,1624.01144 2254.9714,1626.40819 C2255.12262,1627.0303 2255.27383,1627.64586 2255.41848,1628.26797 C2255.48422,1628.54955 2255.54997,1628.83769 2255.61572,1629.12582 C2255.79981,1629.93784 2255.97732,1630.74985 2256.14169,1631.56187 C2256.39152,1632.76025 2256.62164,1633.95862 2256.8386,1635.16355 C2256.97667,1635.93627 2257.10159,1636.709 2257.22651,1637.48172 C2257.44347,1638.82417 2257.64071,1640.17316 2257.81165,1641.52215 C2258.00232,1642.96938 2258.16011,1644.4166 2258.30475,1645.86382 C2258.66636,1649.66195 2258.87017,1653.47319 2258.91619,1657.28442 C2258.93592,1659.07871 2258.92277,1660.86646 2258.87674,1662.6542 C2258.82415,1664.44194 2258.73868,1666.22314 2258.62033,1668.00433 C2258.57431,1668.68538 2258.52171,1669.35987 2258.46912,1670.04092 C2258.41652,1670.64338 2258.36392,1671.25239 2258.30475,1671.85486 C2258.23243,1672.60794 2258.15353,1673.36101 2258.06806,1674.10754 C2258.04176,1674.36294 2258.00889,1674.61178 2257.98259,1674.86717 C2257.89055,1675.6268 2257.79193,1676.38643 2257.68673,1677.13951 C2257.64071,1677.51277 2257.58811,1677.88604 2257.52894,1678.2593 C2257.32513,1679.70652 2257.08844,1681.14719 2256.83203,1682.58132 C2256.59534,1683.91721 2256.33235,1685.25311 2256.05622,1686.58246 C2255.99047,1686.88369 2255.9313,1687.17837 2255.86555,1687.4796 C2255.72749,1688.12136 2255.57627,1688.76966 2255.43163,1689.41142 C2255.28041,1690.05317 2255.12262,1690.69492 2254.96483,1691.33668 C2254.87935,1691.6772 2254.79389,1692.02427 2254.70184,1692.37134 C2254.65582,1692.5678 2254.60322,1692.76425 2254.55062,1692.96071 L2254.54405,1693 C2267.02931,1680.56438 2279.51458,1668.12221 2291.99985,1655.68658 C2291.99985,1655.55561 2291.99327,1655.42464 2291.99327,1655.29367 C2291.9867,1654.91386 2291.97355,1654.54059 2291.9604,1654.16733 C2291.94067,1653.41425 2291.91437,1652.66117 2291.8815,1651.90809 C2291.86835,1651.69854 2291.86178,1651.49554 2291.8552,1651.28598 C2291.82233,1650.61804 2291.78288,1649.95009 2291.74343,1649.28214 C2291.73686,1649.10533 2291.72371,1648.92197 2291.71056,1648.74516 C2291.66454,1647.9135 2291.60537,1647.08184 2291.53962,1646.25673 C2291.44757,1645.08454 2291.34895,1643.91236 2291.23061,1642.74673 C2291.13199,1641.7579 2291.0268,1640.76908 2290.91503,1639.78025 C2290.72436,1638.17587 2290.51397,1636.57148 2290.28386,1634.97364 C2290.0406,1633.30377 2289.77104,1631.64045 2289.48175,1629.98368 C2289.27794,1628.86388 2289.07412,1627.75063 2288.85059,1626.63739 C2288.77169,1626.23793 2288.69279,1625.83847 2288.60732,1625.44556 C2288.54158,1625.10504 2288.46926,1624.77106 2288.39693,1624.43709 C2288.27202,1623.82808 2288.14052,1623.21907 2288.00246,1622.61005 C2287.87754,1622.05998 2287.75262,1621.51645 2287.6277,1620.96638 C2287.59483,1620.8485 2287.56853,1620.72408 2287.54223,1620.60621 C2287.45676,1620.27224 2287.37786,1619.93826 2287.29897,1619.60429 C2287.22007,1619.27031 2287.1346,1618.93634 2287.04913,1618.60237 C2286.95051,1618.20946 2286.85189,1617.81654 2286.75327,1617.43018 C2286.62835,1616.94559 2286.50344,1616.461 2286.37194,1615.97641 C2286.01691,1614.65361 2285.64873,1613.33736 2285.26083,1612.02111 C2284.97811,1611.07813 2284.69541,1610.13514 2284.39955,1609.1987 C2284.18916,1608.51766 2283.97219,1607.84316 2283.74865,1607.16212 C2283.50539,1606.42213 2283.25556,1605.68215 2282.99914,1604.94217 C2282.81506,1604.39864 2282.62439,1603.85512 2282.43373,1603.31159 C2282.13787,1602.49303 2281.84201,1601.67446 2281.533,1600.8559 C2280.46133,1597.9811 2279.31076,1595.1325 2278.07473,1592.32319 C2277.95639,1592.04815 2277.83147,1591.76657 2277.71312,1591.49153 C2268.95569,1590.87597 2262.03915,1583.59402 2262.03915,1574.72079 C2262.03915,1565.44155 2269.6,1557.90422 2278.92286,1557.90422 C2288.23914,1557.90422 2295.79999,1565.44155 2295.79999,1574.72079 C2295.79999,1578.0016 2294.85324,1581.0663 2293.21616,1583.65951 C2293.32135,1583.88216 2293.41997,1584.11136 2293.52516,1584.34056 C2293.86047,1585.09363 2294.1892,1585.84671 2294.51794,1586.60634 C2295.44496,1588.7739 2296.33254,1590.95455 2297.18067,1593.1483 C2298.08797,1595.52541 2298.95583,1597.92217 2299.77108,1600.33202 C2300.12612,1601.39288 2300.47457,1602.45374 2300.80988,1603.5146 C2301.05972,1604.29387 2301.2964,1605.07314 2301.53309,1605.85241 C2302.13796,1607.84316 2302.70338,1609.84701 2303.2425,1611.8574 C2303.46604,1612.71525 2303.68958,1613.57966 2303.90654,1614.44406 C2304.00516,1614.83697 2304.10378,1615.23643 2304.2024,1615.62934 C2304.24842,1615.8258 2304.29445,1616.02225 2304.34047,1616.21871 C2304.37992,1616.36932 2304.41279,1616.51994 2304.44566,1616.67055 C2304.48511,1616.81462 2304.51798,1616.96524 2304.55086,1617.11585 C2304.61003,1617.35815 2304.6692,1617.60699 2304.72837,1617.85584 C2304.88616,1618.56307 2305.04396,1619.27031 2305.20175,1619.97755 C2305.47788,1621.24142 2305.73429,1622.50528 2305.98413,1623.77569 C2306.16822,1624.69903 2306.33916,1625.62237 2306.50353,1626.55226 C2306.97033,1629.15202 2307.37796,1631.75832 2307.73299,1634.37773 C2307.87763,1635.43204 2308.00912,1636.4929 2308.13404,1637.54721 C2308.16692,1637.8157 2308.19979,1638.07764 2308.22609,1638.33958 C2308.24581,1638.51639 2308.26554,1638.6932 2308.28526,1638.87001 C2308.30498,1639.04682 2308.32471,1639.21708 2308.34443,1639.39389 L2308.34443,1639.40698 C2312.84149,1634.93435 2317.33198,1630.45517 2321.82247,1625.98254 C2324.89941,1622.91783 2327.97635,1619.85313 2331.04671,1616.79498 C2331.53981,1616.30384 2332.0329,1615.8127 2332.526,1615.32156 C2332.84816,1615.00068 2333.1769,1614.67326 2333.49905,1614.35238 C2333.52535,1614.32619 2333.54507,1614.30654 2333.5648,1614.28035 C2333.61082,1614.23451 2333.65684,1614.18867 2333.70287,1614.14283 C2333.78834,1614.0446 2333.88038,1613.94637 2333.96585,1613.84815 C2333.99215,1613.80885 2334.01845,1613.77611 2334.05132,1613.74337 C2334.13022,1613.64514 2334.20912,1613.54037 2334.28801,1613.44214 C2334.39321,1613.29807 2334.49183,1613.154 2334.59045,1613.00339 C2334.62989,1612.951 2334.66934,1612.89206 2334.70221,1612.83313 C2334.77453,1612.71525 2334.84686,1612.59738 2334.9126,1612.47951 C2334.95863,1612.40092 2334.99807,1612.31579 2335.0441,1612.23721 C2335.14929,1612.02766 2335.24791,1611.81811 2335.33996,1611.60201 C2335.3794,1611.49723 2335.42543,1611.38591 2335.46487,1611.27458 C2335.49117,1611.21564 2335.5109,1611.15016 2335.53062,1611.08467 C2335.57007,1610.9799 2335.60294,1610.86857 2335.63582,1610.7638 C2335.69499,1610.57389 2335.74101,1610.38398 2335.78703,1610.19408 C2335.82648,1610.02382 2335.85935,1609.84701 2335.88565,1609.6702 C2335.8988,1609.61781 2335.90538,1609.56542 2335.91195,1609.50648 C2335.93167,1609.36896 2335.9514,1609.2249 2335.96455,1609.08738 C2335.97112,1608.97605 2335.9777,1608.86473 2335.98427,1608.7534 C2335.99742,1608.55695 2336.00399,1608.36049 2335.99742,1608.16404 C2335.99742,1608.1182 2335.99742,1608.06581 2335.99742,1608.01997 C2335.98427,1607.75148 2335.96455,1607.47645 2335.93167,1607.20795 C2335.89223,1606.93947 2335.8462,1606.67098 2335.78703,1606.40249 C2335.75416,1606.25842 2335.71471,1606.10781 2335.67526,1605.96374 C2335.66211,1605.92445 2335.64896,1605.87861 2335.63582,1605.83277 C2335.59637,1605.7018 2335.55692,1605.57083 2335.5109,1605.43986 C2335.45172,1605.2303 2335.38598,1605.02075 2335.32023,1604.8112 C2335.08354,1604.05812 2334.84028,1603.29849 2334.59702,1602.54542 C2334.30116,1601.62207 2333.99215,1600.70528 2333.68314,1599.78849 C2333.1506,1598.20375 2332.59832,1596.62556 2332.02633,1595.05392 C2331.65815,1594.0258 2331.27682,1592.99769 2330.89549,1591.96957 C2330.65223,1591.33437 2330.41554,1590.70571 2330.1657,1590.0705 C2329.94217,1589.48768 2329.71863,1588.90487 2329.48851,1588.32205 C2329.21895,1587.641 2328.94939,1586.95341 2328.67326,1586.27891 C2328.43657,1585.68955 2328.19988,1585.10673 2327.9632,1584.53046 C2327.59501,1583.63332 2327.22026,1582.73617 2326.8455,1581.84557 C2326.59567,1581.2693 2326.3524,1580.68649 2326.10257,1580.11022 C2325.89218,1579.62563 2325.68179,1579.14759 2325.4714,1578.663 C2324.87311,1577.314 2324.26824,1575.96501 2323.6568,1574.62256 C2323.37409,1574.007 2323.0848,1573.3849 2322.79552,1572.76934 C2321.95396,1570.96849 2321.08611,1569.1742 2320.2051,1567.38646 C2319.75145,1566.46967 2319.29123,1565.55942 2318.82443,1564.64918 C2318.4168,1563.84372 2318.0026,1563.03825 2317.58182,1562.23278 C2317.27281,1561.64996 2316.9638,1561.06715 2316.65479,1560.48433 C2316.48385,1560.1569 2316.30634,1559.82948 2316.12882,1559.50205 C2315.74749,1558.78826 2315.35959,1558.08103 2314.97168,1557.36724 C2314.2156,1555.9986 2313.45294,1554.63651 2312.67713,1553.28752 C2312.24978,1552.54098 2311.82242,1551.801 2311.3885,1551.06102 C2310.51407,1549.56796 2309.61991,1548.08145 2308.71261,1546.60148 C2307.94338,1545.35072 2307.16757,1544.1065 2306.37861,1542.86883 C2304.82699,1540.43934 2303.23593,1538.03603 2301.59884,1535.66547 C2301.15176,1535.01062 2300.70468,1534.36232 2300.24446,1533.72056 C2299.98805,1533.3473 2299.72506,1532.98058 2299.46208,1532.60732 C2298.95583,1531.89353 2298.443,1531.17974 2297.92361,1530.4725 C2297.6672,1530.11233 2297.40421,1529.75872 2297.14122,1529.4051 C2296.70072,1528.80263 2296.25364,1528.20672 2295.80657,1527.60425 C2295.30689,1526.93631 2294.80065,1526.27491 2294.28782,1525.60696 C2294.02484,1525.25989 2293.75528,1524.91282 2293.48572,1524.56575 C2292.97289,1523.90435 2292.4535,1523.24949 2291.9341,1522.59464 C2291.44757,1521.97908 2290.9479,1521.35697 2290.44823,1520.74141 C2289.38313,1519.43171 2288.30489,1518.12856 2287.2135,1516.8385 L2257.8248,1545.33107 C2254.83333,1548.22552 2250.06014,1548.16658 2247.14099,1545.20665 C2247.12127,1545.18701 2247.10154,1545.16736 2247.07524,1545.15426 C2246.96347,1545.06258 2246.86485,1544.95781 2246.75966,1544.85958 C2246.75966,1544.85303 2246.62817,1544.71551 2246.62817,1544.71551 C2246.58214,1544.66967 2246.5427,1544.62383 2246.49667,1544.578 C2246.39148,1544.46012 2246.27971,1544.3488 2246.17452,1544.23092 C2245.9181,1543.96244 2245.66827,1543.7005 2245.41186,1543.43201 L2243.13703,1541.10728 C2242.99896,1540.96322 2242.86089,1540.8257 2242.71625,1540.68818 C2241.39474,1539.36538 2240.04694,1538.06223 2238.67284,1536.78527 C2237.68006,1535.86193 2236.68072,1534.94514 2235.66164,1534.04144 C2234.87926,1533.3473 2234.08373,1532.65316 2233.28162,1531.97211 C2232.40719,1531.21903 2231.51962,1530.4725 2230.62546,1529.73907 C2229.98772,1529.21519 2229.34341,1528.69786 2228.69909,1528.18052 C2226.95023,1526.79224 2225.18165,1525.43015 2223.3802,1524.1139 C2222.70301,1523.60966 2222.01267,1523.11852 2221.3289,1522.62739 C2220.66486,1522.15589 2220.00082,1521.69095 2219.33021,1521.226 C2218.72534,1520.81345 2218.1139,1520.39434 2217.50246,1519.98834 C2216.2467,1519.14358 2214.97121,1518.31192 2213.68916,1517.4999 C2212.83445,1516.95637 2211.97317,1516.42595 2211.10532,1515.89552 C2209.28414,1514.79537 2207.44324,1513.72141 2205.58524,1512.68675 C2204.38076,1512.01225 2203.16774,1511.3574 2201.94748,1510.71564 C2201.52013,1510.49299 2201.09146,1510.27035 2200.66214,1510.05425 C2199.80678,1509.60894 2198.94747,1509.17674 2198.08488,1508.75109 C2196.89881,1508.16827 2195.70617,1507.59855 2194.50695,1507.04193 C2192.36164,1506.04656 2190.19463,1505.09702 2188.00791,1504.19333 C2186.50691,1503.57777 2184.99672,1502.9753 2183.47797,1502.39903 C2180.17289,1501.14827 2176.82837,1499.99573 2173.44965,1498.95452 C2171.38587,1498.31276 2169.31025,1497.71685 2167.22346,1497.16023 C2163.40555,1496.13866 2159.55149,1495.25461 2155.67113,1494.50808 C2153.1537,1494.02349 2150.62509,1493.59784 2148.08793,1493.23112 C2144.64281,1492.72688 2141.18191,1492.33397 2137.71247,1492.04584 C2137.54021,1492.03274 2137.36796,1492.01964 2137.1957,1492.00655 C2134.12271,1496.17795 2129.16345,1498.88903 2123.57368,1498.88903 C2117.98259,1498.88903 2113.02333,1496.17795 2109.95034,1492 Z M2221.07252,1464.20893 C2219.60911,1463.48494 2218.13912,1462.78728 2216.65601,1462.10278 C2215.42228,1461.53017 2214.18198,1460.9773 2212.94168,1460.4376 C2212.31825,1460.16117 2211.69482,1459.8979 2211.06483,1459.62805 C2209.10923,1458.79875 2207.13394,1458.00236 2205.15209,1457.23888 C2204.29241,1456.90321 2203.43077,1456.58071 2202.56649,1456.2582 C2201.8256,1455.98835 2201.08273,1455.7185 2200.33855,1455.45523 C2199.1396,1455.02742 2197.93605,1454.61277 2196.72922,1454.2047 C2194.84515,1453.57285 2192.95058,1452.97392 2191.04879,1452.39472 C2187.4762,1451.31532 2183.87475,1450.33464 2180.25032,1449.45269 C2176.65411,1448.57074 2173.03494,1447.79409 2169.39804,1447.10301 C2167.56122,1446.75418 2165.71981,1446.42509 2163.87511,1446.12233 C2162.46813,1445.89197 2161.05852,1445.67477 2159.6476,1445.47074 C2156.82838,1445.06267 2154.00129,1444.71384 2151.16895,1444.4045 C2146.64678,1443.92403 2142.11084,1443.56862 2137.56833,1443.33826 C2133.9544,1443.15397 2130.33654,1443.04866 2126.71802,1443.01575 C2125.18175,1442.99601 2123.64484,1442.99601 2122.10857,1443.00917 C2118.26496,1443.04208 2114.42135,1443.15397 2110.58233,1443.35142 C2109.05854,1443.4304 2107.53606,1443.52255 2106.01423,1443.63444 C2102.56371,1443.87796 2099.11778,1444.19389 2095.68104,1444.58221 C2091.43647,1445.06267 2087.20502,1445.66161 2082.99391,1446.37902 C2082.00233,1446.55015 2081.01206,1446.72785 2080.0231,1446.90556 C2076.21362,1447.60981 2072.4225,1448.41278 2068.65568,1449.32106 C2063.15833,1450.6374 2057.71284,1452.17753 2052.34018,1453.94801 C2049.76771,1454.79048 2047.2123,1455.68559 2044.67527,1456.63336 C2043.52094,1457.06775 2042.37121,1457.50873 2041.22475,1457.96287 C2040.69582,1458.1669 2040.16754,1458.37752 2039.64058,1458.59472 C2038.05838,1459.23314 2036.48406,1459.8979 2034.91826,1460.57582 C2031.49137,1462.06987 2028.10647,1463.65607 2024.76948,1465.34099 C2024.07255,1474.02888 2016.81385,1480.87388 2007.97427,1480.87388 C2005.54158,1480.87388 2003.22898,1480.35392 2001.14016,1479.41932 C1999.05003,1480.87388 1996.98746,1482.36135 1994.95377,1483.89489 C1993.92675,1484.66496 1992.90629,1485.44818 1991.89437,1486.23799 C1991.49537,1486.55391 1991.09703,1486.86326 1990.7,1487.17918 C1989.72352,1487.95582 1988.75425,1488.73905 1987.7922,1489.53544 C1986.61883,1490.49637 1985.45663,1491.47705 1984.30492,1492.47089 C1983.79568,1492.91187 1983.28841,1493.35284 1982.78376,1493.79382 C1981.14643,1495.23522 1979.53076,1496.69637 1977.93806,1498.18384 C1977.01539,1499.05262 1976.09993,1499.92141 1975.19235,1500.79678 C1974.4252,1501.54052 1973.66396,1502.29084 1972.90731,1503.04774 C1972.58772,1503.36366 1972.26944,1503.68616 1971.95116,1504.00209 C1971.17942,1504.78531 1970.41228,1505.56854 1969.65235,1506.35835 C1968.93573,1507.10867 1968.22436,1507.85898 1967.51825,1508.6093 C1967.18947,1508.96471 1966.86135,1509.32013 1966.53389,1509.67554 C1965.32574,1510.97872 1964.13401,1512.30823 1962.95671,1513.64433 C1962.36084,1514.32224 1961.76891,1515.00016 1961.18157,1515.68466 C1960.80948,1516.11906 1960.43871,1516.55345 1960.0699,1516.98785 C1959.96884,1517.10632 1959.86778,1517.22479 1959.76737,1517.34326 C1959.23188,1517.98169 1958.69966,1518.62011 1958.17073,1519.25854 C1957.54271,1520.02202 1956.91928,1520.78551 1956.3011,1521.55557 C1956.03992,1521.87807 1955.7807,1522.20058 1955.52214,1522.52967 C1955.13364,1523.01671 1954.74777,1523.50376 1954.36387,1523.99739 C1954.10728,1524.32648 1953.852,1524.64898 1953.59804,1524.97807 C1953.15245,1525.55726 1952.70949,1526.12987 1952.26915,1526.70906 C1951.63981,1527.53836 1951.01638,1528.36766 1950.39754,1529.20354 C1949.79183,1530.02626 1949.19137,1530.84897 1948.59616,1531.67169 C1948.04885,1532.42859 1947.50614,1533.19207 1946.96802,1533.95555 C1946.75278,1534.26489 1946.53753,1534.56765 1946.32359,1534.87699 C1946.00269,1535.33772 1945.6831,1535.79844 1945.36548,1536.25916 C1944.84377,1537.01606 1944.32599,1537.77954 1943.81215,1538.54302 C1942.92688,1539.85937 1942.05474,1541.18888 1941.1944,1542.51839 C1940.62413,1543.40692 1940.0591,1544.28887 1939.49933,1545.18399 C1939.1279,1545.77634 1938.75909,1546.3687 1938.39225,1546.96105 L1938.29184,1547.1256 C1937.92632,1547.71795 1937.5621,1548.31689 1937.20117,1548.90925 C1936.58036,1549.936 1935.96612,1550.96933 1935.35975,1552.00266 C1935.11629,1552.41731 1934.87348,1552.83196 1934.63198,1553.24661 C1934.24611,1553.91795 1933.86221,1554.5827 1933.48159,1555.25404 C1933.17184,1555.80032 1932.86538,1556.34661 1932.55957,1556.89289 C1931.89348,1558.08418 1931.23593,1559.28206 1930.58756,1560.47993 C1929.96741,1561.63174 1929.35514,1562.79012 1928.75074,1563.94851 C1928.32353,1564.77122 1927.89894,1565.59394 1927.4796,1566.41666 C1927.17116,1567.02876 1926.8647,1567.63428 1926.56086,1568.24638 C1926.48277,1568.40434 1926.40467,1568.55572 1926.32658,1568.71368 C1925.68543,1570.0037 1925.05478,1571.3003 1924.43398,1572.60348 C1923.99298,1573.52493 1923.55724,1574.45295 1923.12674,1575.38098 C1922.796,1576.09838 1922.46722,1576.81579 1922.14172,1577.5332 C1921.75126,1578.39541 1921.36604,1579.25762 1920.98477,1580.11982 C1920.88896,1580.33702 1920.79446,1580.55422 1920.69996,1580.77141 C1920.51031,1581.19923 1920.32196,1581.63362 1920.13493,1582.06802 C1919.76022,1582.93681 1919.3901,1583.80559 1919.02457,1584.68096 C1918.85723,1585.07587 1918.69055,1585.47735 1918.52452,1585.87884 C1918.18721,1586.69497 1917.85318,1587.51111 1917.52309,1588.33382 C1917.29341,1588.89985 1917.067,1589.47247 1916.84125,1590.04508 C1916.77104,1590.22278 1916.70082,1590.40049 1916.63126,1590.5782 C1916.57482,1590.72299 1916.51904,1590.86779 1916.4626,1591.01259 C1916.32348,1591.368 1916.18501,1591.72342 1916.0472,1592.08541 C1915.97895,1592.26312 1915.91005,1592.44083 1915.8418,1592.61853 C1915.53402,1593.4215 1915.23018,1594.23106 1914.93093,1595.04061 C1914.78394,1595.43551 1914.63825,1595.83042 1914.49322,1596.22532 C1914.38953,1596.50834 1914.28716,1596.79793 1914.18413,1597.08095 L1914.1231,1597.25207 C1914.04107,1597.47585 1913.9597,1597.70621 1913.87832,1597.92999 C1913.69654,1598.44337 1913.51608,1598.95016 1913.33692,1599.46353 C1912.95433,1600.5561 1912.58027,1601.65525 1912.21409,1602.7544 C1912.01591,1603.34676 1911.821,1603.94569 1911.62807,1604.53805 C1911.58213,1604.68285 1911.53685,1604.82765 1911.49091,1604.96586 C1911.4581,1605.07117 1911.42529,1605.1699 1911.39313,1605.2752 C1911.38263,1605.30811 1911.37279,1605.34102 1911.36294,1605.37393 C1911.34457,1605.43317 1911.3262,1605.4924 1911.30979,1605.55822 C1911.26582,1605.71618 1911.22579,1605.88072 1911.19101,1606.03868 C1911.15295,1606.22297 1911.12014,1606.40068 1911.09257,1606.58497 C1911.06173,1606.79558 1911.0381,1607.01278 1911.02236,1607.2234 C1911.00726,1607.42743 1911.0007,1607.62488 1911.00004,1607.82892 C1910.99873,1608.24357 1911.02761,1608.6648 1911.08667,1609.07286 C1911.10373,1609.19134 1911.12342,1609.30981 1911.14507,1609.42828 C1911.15098,1609.46119 1911.15688,1609.49409 1911.16279,1609.52042 C1911.17329,1609.57966 1911.1851,1609.63231 1911.19692,1609.68497 C1911.21004,1609.7442 1911.22317,1609.80344 1911.2376,1609.86267 C1911.26713,1609.98772 1911.29798,1610.1062 1911.33276,1610.23125 C1911.37148,1610.36288 1911.41348,1610.5011 1911.45876,1610.63273 C1911.49288,1610.73146 1911.52963,1610.83677 1911.56704,1610.93549 C1911.69107,1611.258 1911.83478,1611.5805 1911.99687,1611.88326 C1912.05397,1611.99515 1912.11369,1612.10046 1912.17537,1612.20577 C1912.19047,1612.2321 1912.20556,1612.25842 1912.22065,1612.28475 C1912.28759,1612.39664 1912.35781,1612.50853 1912.42999,1612.62042 C1912.52252,1612.75863 1912.61965,1612.89685 1912.72071,1613.03507 C1912.80799,1613.14696 1912.8979,1613.26543 1912.99108,1613.37732 C1913.11708,1613.5287 1913.24833,1613.67349 1913.38417,1613.81829 C1913.43142,1613.86436 1913.47933,1613.91702 1913.52723,1613.96309 L1938.49069,1639 C1938.50578,1638.8552 1938.52219,1638.70382 1938.53794,1638.55902 C1938.54844,1638.4603 1938.55894,1638.36157 1938.57009,1638.26943 C1938.618,1637.83503 1938.66722,1637.40064 1938.71775,1636.97283 C1938.75187,1636.68323 1938.78665,1636.39363 1938.82209,1636.10404 C1938.92184,1635.2879 1939.02749,1634.47177 1939.1384,1633.65563 C1939.29458,1632.50383 1939.46127,1631.35861 1939.63977,1630.21339 C1940.00989,1627.81764 1940.42726,1625.43505 1940.89056,1623.06563 C1941.13075,1621.83484 1941.3834,1620.60406 1941.64852,1619.37986 C1941.79158,1618.72168 1941.93793,1618.06351 1942.08755,1617.40534 C1942.18402,1616.98411 1942.2818,1616.56287 1942.38155,1616.13506 C1942.51017,1615.58878 1942.64076,1615.04908 1942.77398,1614.50279 C1942.81401,1614.33825 1942.85404,1614.17371 1942.89473,1614.01574 C1942.95576,1613.76564 1943.01744,1613.52211 1943.07913,1613.27859 C1943.234,1612.65991 1943.3915,1612.04781 1943.55294,1611.43571 C1943.62775,1611.15269 1943.70322,1610.86968 1943.78,1610.58008 C1943.92175,1610.05354 1944.06612,1609.52042 1944.21312,1608.99388 C1944.31484,1608.63189 1944.41721,1608.26331 1944.52155,1607.89473 C1944.71777,1607.21023 1944.91792,1606.51915 1945.12136,1605.83465 C1945.31364,1605.18306 1945.50985,1604.53805 1945.70869,1603.89304 C1945.85832,1603.41257 1946.00991,1602.93211 1946.16281,1602.44506 C1946.41875,1601.64209 1946.67993,1600.83912 1946.94637,1600.04273 C1947.35914,1598.79878 1947.78504,1597.568 1948.22407,1596.33721 C1948.36122,1595.94889 1948.50035,1595.56715 1948.64013,1595.18541 C1949.0004,1594.19157 1949.36987,1593.20431 1949.74721,1592.22363 C1950.01955,1591.5128 1950.29583,1590.80856 1950.5767,1590.09773 C1950.64167,1589.93319 1950.70729,1589.77522 1950.77292,1589.61068 C1951.01835,1588.99858 1951.26772,1588.38648 1951.51972,1587.77438 C1951.80125,1587.09646 1952.0854,1586.41854 1952.3748,1585.74062 C1952.55199,1585.33256 1952.72983,1584.91791 1952.90898,1584.50984 C1952.9582,1584.39795 1953.00742,1584.28606 1953.05598,1584.17417 C1953.24761,1583.73319 1953.4412,1583.2988 1953.63676,1582.86441 C1952.04406,1580.28437 1951.12466,1577.24361 1951.12466,1573.98565 C1951.12466,1564.73831 1958.54151,1557.22198 1967.72825,1557.09034 C1968.08262,1556.54406 1968.44027,1556.00435 1968.80055,1555.46465 C1969.00464,1555.16189 1969.21004,1554.85913 1969.4161,1554.55637 C1969.75931,1554.04958 1970.10515,1553.54279 1970.45362,1553.03599 C1971.22011,1551.93026 1971.99776,1550.83111 1972.78722,1549.74513 C1973.53533,1548.7118 1974.29329,1547.68505 1975.06175,1546.67146 C1976.51336,1544.74959 1978.00172,1542.86064 1979.52617,1540.99801 C1981.13331,1539.03665 1982.78113,1537.1082 1984.46702,1535.21266 C1985.91994,1533.58039 1987.40173,1531.96787 1988.91109,1530.38825 C1990.54119,1528.677 1992.20411,1526.99866 1993.89722,1525.35323 C1995.60738,1523.69463 1997.34905,1522.06236 1999.1209,1520.46958 C2000.54036,1519.19273 2001.98015,1517.93561 2003.43832,1516.70483 C2005.29221,1515.1318 2007.17693,1513.60484 2009.09119,1512.1042 C2010.38137,1511.0972 2011.68532,1510.10993 2013.00174,1509.13584 C2014.93503,1507.7076 2016.89523,1506.31228 2018.88233,1504.96302 C2021.09386,1503.4558 2023.33756,1501.99466 2025.61143,1500.58617 C2028.49168,1498.80252 2031.42115,1497.09127 2034.39458,1495.47216 C2038.99484,1492.95794 2043.70206,1490.64117 2048.49854,1488.52843 C2049.46847,1488.10062 2050.44167,1487.67939 2051.41882,1487.27132 C2053.78457,1486.27748 2056.17198,1485.33629 2058.57711,1484.44118 C2060.05365,1483.89489 2061.53742,1483.36177 2063.02774,1482.85498 C2064.7891,1482.24946 2066.55898,1481.67027 2068.3374,1481.12399 C2072.25844,1479.91295 2076.21952,1478.83354 2080.2121,1477.88577 C2083.93168,1477.0104 2087.67882,1476.24034 2091.44565,1475.59533 C2095.19477,1474.95032 2098.96291,1474.42378 2102.74418,1474.00913 C2104.41628,1473.83143 2106.09036,1473.67347 2107.76706,1473.53525 C2110.49177,1467.87496 2116.26867,1463.97199 2122.94791,1463.97199 C2129.62845,1463.97199 2135.40601,1467.88154 2138.13073,1473.53525 C2140.1303,1473.69979 2142.12724,1473.89724 2144.12025,1474.12102 C2147.00575,1474.45011 2149.88403,1474.85159 2152.75115,1475.3189 C2153.67382,1475.4637 2154.59584,1475.62166 2155.51655,1475.7862 C2157.27987,1476.10212 2159.03926,1476.43779 2160.79274,1476.80637 C2165.26044,1477.73439 2169.69401,1478.83354 2174.08099,1480.09724 C2176.26759,1480.7225 2178.44303,1481.39384 2180.60535,1482.10466 C2182.16196,1482.61146 2183.71134,1483.14458 2185.25417,1483.69744 C2186.5824,1484.17133 2187.90473,1484.66496 2189.22181,1485.17175 C2190.76398,1485.76411 2192.29827,1486.37621 2193.82469,1487.01464 C2194.93702,1487.47536 2196.04542,1487.94924 2197.14922,1488.42971 C2198.58179,1489.06155 2200.00715,1489.70656 2201.42332,1490.37132 C2202.52843,1490.89128 2203.6283,1491.41782 2204.72291,1491.9641 C2205.78602,1492.48406 2206.84519,1493.02376 2207.89518,1493.57004 C2210.61859,1494.97853 2213.30918,1496.45942 2215.9604,1497.99955 C2221.49252,1501.23118 2226.86058,1504.73924 2232.03177,1508.52374 C2234.78143,1510.53117 2237.46546,1512.61099 2240.09699,1514.76322 C2241.17979,1515.64517 2242.2429,1516.54029 2243.30601,1517.44857 C2244.84818,1518.77149 2246.37066,1520.11417 2247.8669,1521.48975 C2248.54939,1522.11502 2249.23188,1522.74686 2249.90781,1523.38529 C2250.30155,1523.75387 2250.68874,1524.12244 2251.07592,1524.49102 C2251.6731,1525.07021 2252.27028,1525.64282 2252.8609,1526.2286 C2252.99871,1526.36023 2253.12996,1526.49187 2253.26777,1526.63008 L2276,1504.43648 C2275.92781,1504.36408 2275.86219,1504.29168 2275.79,1504.21928 C2275.45532,1503.87704 2275.12064,1503.54137 2274.78595,1503.19912 C2274.5497,1502.95559 2274.31346,1502.71207 2274.07065,1502.47513 C2273.37503,1501.77088 2272.67285,1501.0798 2271.96411,1500.38872 C2271.20287,1499.6384 2270.43507,1498.90124 2269.6607,1498.17067 C2268.59102,1497.15709 2267.52135,1496.16325 2266.43199,1495.17598 C2264.16139,1493.10932 2261.83829,1491.09531 2259.47582,1489.13395 C2258.49146,1488.31782 2257.50053,1487.51485 2256.50304,1486.71846 C2255.27587,1485.73778 2254.03557,1484.77027 2252.78215,1483.8225 C2250.81342,1482.32186 2248.81845,1480.86072 2246.79066,1479.44564 C2246.50191,1479.24161 2246.21973,1479.04416 2245.93098,1478.84012 C2243.54882,1480.13673 2240.81885,1480.87388 2237.92483,1480.87388 C2228.69806,1480.87388 2221.19721,1473.42336 2221.07252,1464.20893 Z M1968.5,1565 C1973.74339,1565 1978,1569.25611 1978,1574.5 C1978,1579.74389 1973.74339,1584 1968.5,1584 C1963.25661,1584 1959,1579.74389 1959,1574.5 C1959,1569.25611 1963.25661,1565 1968.5,1565 Z M2278.50331,1565 C2283.74538,1565 2288,1569.25611 2288,1574.5 C2288,1579.74389 2283.74538,1584 2278.50331,1584 C2273.25462,1584 2269,1579.74389 2269,1574.5 C2269,1569.25611 2273.25462,1565 2278.50331,1565 Z M2123.5,1472 C2128.74339,1472 2133,1476.25462 2133,1481.50331 C2133,1486.74538 2128.74339,1491 2123.5,1491 C2118.25727,1491 2114,1486.74538 2114,1481.50331 C2114,1476.25462 2118.25727,1472 2123.5,1472 Z M2238.50331,1455 C2243.74538,1455 2248,1459.26125 2248,1464.50331 C2248,1469.74538 2243.74538,1474 2238.50331,1474 C2233.25462,1474 2229,1469.74538 2229,1464.50331 C2229,1459.26125 2233.25462,1455 2238.50331,1455 Z M2007.5,1455 C2012.74273,1455 2017,1459.26125 2017,1464.50331 C2017,1469.74538 2012.74273,1474 2007.5,1474 C2002.25661,1474 1998,1469.74538 1998,1464.50331 C1998,1459.26125 2002.25661,1455 2007.5,1455 Z M2123.5,1723 C2089.53449,1723 2062,1695.46551 2062,1661.5 C2062,1627.53449 2089.53449,1600 2123.5,1600 C2157.46551,1600 2185,1627.53449 2185,1661.5 C2185,1695.46551 2157.46551,1723 2123.5,1723 Z" id="Shape-Copy"></path>
        </g>
    </g>
</svg>