<svg fill="#FFFFFF" xmlns="http://www.w3.org/2000/svg" xmlns:xlink="http://www.w3.org/1999/xlink" version="1.1" x="0px" y="0px" viewBox="0 0 100 100" enable-background="new 0 0 100 100" xml:space="preserve"><path d="M37.2,64.4h24.9c1,0,1.8-0.8,1.8-1.8V37.8c0-1-0.8-1.8-1.8-1.8H37.2c-1,0-1.8,0.8-1.8,1.8v24.9  C35.4,63.7,36.2,64.4,37.2,64.4z M38.9,39.6h21.4v21.4H38.9V39.6z M93.2,52c3.4,0,6.2-2.8,6.2-6.2v-7.3c0-1-0.8-1.8-1.8-1.8  s-1.8,0.8-1.8,1.8v7.3c0,1.5-1.2,2.7-2.7,2.7H74.8v-8.2h10.7c1,0,1.8-0.8,1.8-1.8s-0.8-1.8-1.8-1.8H74.8v-9.9c0-1-0.8-1.8-1.8-1.8  h-9.9V14.7c0-1-0.8-1.8-1.8-1.8s-1.8,0.8-1.8,1.8v10.5h-8.2V6.9c0-3.4-2.8-6.2-6.2-6.2h-7.3c-1,0-1.8,0.8-1.8,1.8s0.8,1.8,1.8,1.8  h7.3c1.5,0,2.7,1.2,2.7,2.7v18.2h-8.2V14.7c0-1-0.8-1.8-1.8-1.8s-1.8,0.8-1.8,1.8v10.5h-9.9c-1,0-1.8,0.8-1.8,1.8v9.9h-9.9  c-1,0-1.8,0.8-1.8,1.8s0.8,1.8,1.8,1.8h9.9v8.2H6.8c-3.4,0-6.2,2.8-6.2,6.2V62c0,1,0.8,1.8,1.8,1.8s1.8-0.8,1.8-1.8v-7.3  c0-1.5,1.2-2.7,2.7-2.7h17.7v8.2h-9.9c-1,0-1.8,0.8-1.8,1.8s0.8,1.8,1.8,1.8h9.9v9.9c0,1,0.8,1.8,1.8,1.8h9.9v9.9  c0,1,0.8,1.8,1.8,1.8s1.8-0.8,1.8-1.8v-9.9h8.2v17.7c0,3.4,2.8,6.2,6.2,6.2h7.3c1,0,1.8-0.8,1.8-1.8s-0.8-1.8-1.8-1.8H54  c-1.5,0-2.7-1.2-2.7-2.7V75.4h8.2v9.9c0,1,0.8,1.8,1.8,1.8s1.8-0.8,1.8-1.8v-9.9H73c1,0,1.8-0.8,1.8-1.8v-9.9h10.7  c1,0,1.8-0.8,1.8-1.8s-0.8-1.8-1.8-1.8H74.8V52H93.2z M71.3,71.9H28V28.6h43.3V71.9z"></path></svg>