<svg fill="#FFFFFF" xmlns="http://www.w3.org/2000/svg" data-name="Layer 1" viewBox="0 0 100 100" x="0px" y="0px"><title>29</title><g data-name="Group"><rect data-name="Path" x="34.7" y="48.9" width="13.8" height="2"></rect><path data-name="Compound Path" d="M61.4,53.7a3.8,3.8,0,1,0-3.8-3.8A3.8,3.8,0,0,0,61.4,53.7Zm0-5.6a1.8,1.8,0,1,1-1.8,1.8A1.8,1.8,0,0,1,61.4,48.1Z"></path><path data-name="Compound Path" d="M78.5,73.6v14H97.5v-23H79.9l-7.2-6.5V41.4l7-6H97.3v-23H78.4V33.9L71,40.2H50.9V25.5h8.5V2.5H40.4v23h8.5V40.2H28.5l-7.1-6.3V12.4H2.5v23H20.1l7.1,6.3V58.1l-6.9,6.3H2.5v23H21.5V66.1l7.1-6.5H48.9V74.5H40.4v23H59.4v-23H50.9V59.6H71.3l7.2,6.5v7.6ZM42.4,4.5H57.4v5H42.4Zm0,7H57.4v5H42.4Zm0,12v-5H57.4v5H42.4Zm14.9,72H42.4v-5H57.4Zm0-7H42.4v-5H57.4Zm0-12v5H42.4v-5H57.4Zm38.1,9.1H80.5v-5H95.5Zm0-7H80.5v-5H95.5ZM80.4,14.4H95.3v5H80.4Zm0,7H95.3v5H80.4Zm14.9,7v5H80.4v-5ZM50.9,42.2H70.7V57.6H29.1V42.2H50.9ZM4.5,14.4H19.5v5H4.5Zm0,7H19.5v5H4.5Zm0,7H19.5v5H4.5Zm14.9,57H4.5v-5H19.5Zm0-7H4.5v-5H19.5Zm-14.9-7v-5H19.5v5Zm76-4.8H95.5v5H80.5Z"></path></g></svg>